<?xml version="1.0" standalone="no"?>
<!DOCTYPE svg PUBLIC "-//W3C//DTD SVG 20010904//EN"
 "http://www.w3.org/TR/2001/REC-SVG-20010904/DTD/svg10.dtd">
<svg version="1.0" xmlns="http://www.w3.org/2000/svg"
 width="640.000000pt" height="640.000000pt" viewBox="0 0 640.000000 640.000000"
 preserveAspectRatio="xMidYMid meet">
<metadata>
Created by potrace 1.14, written by Peter Selinger 2001-2017
</metadata>
<g transform="translate(0.000000,640.000000) scale(0.100000,-0.100000)"
fill="#000000" stroke="none">
<path d="M0 5896 l0 -205 32 -15 c17 -9 34 -13 37 -8 3 4 21 3 40 -4 20 -6 29
-14 22 -18 -6 -4 -11 -17 -11 -28 0 -18 4 -20 41 -15 22 3 38 3 35 0 -11 -11
44 -45 62 -37 9 4 21 6 26 5 19 -4 34 22 34 67 1 33 -1 43 -8 32 -6 -9 -10
-10 -10 -3 0 7 -11 23 -24 36 -16 16 -23 32 -20 44 3 11 -2 27 -11 37 -13 13
-14 20 -6 30 9 11 5 19 -19 36 -16 12 -30 30 -30 41 0 13 -6 19 -17 17 -10 -2
-18 2 -18 9 0 6 -10 21 -22 33 -24 21 -30 40 -14 40 5 0 8 7 7 15 -3 18 -36
55 -50 55 -7 0 -19 9 -29 20 -9 11 -24 20 -32 20 -13 0 -15 -29 -15 -204z"/>
<path d="M2661 6055 c-1 -6 -15 -19 -32 -29 -17 -10 -28 -20 -25 -23 12 -12
-16 -43 -38 -43 -30 0 -88 -53 -81 -72 3 -8 -6 -39 -21 -69 -15 -30 -26 -56
-25 -58 3 -5 -21 -21 -31 -21 -10 0 -118 108 -118 118 0 11 -59 42 -80 42 -10
0 -22 5 -26 12 -5 7 -10 3 -16 -13 -8 -21 -11 -22 -21 -8 -19 24 -47 31 -54
13 -3 -8 -12 -13 -19 -10 -7 3 -18 -3 -23 -12 -10 -16 -10 -16 -11 0 0 29 -14
27 -49 -4 -32 -28 -34 -34 -32 -86 1 -43 8 -66 30 -99 16 -23 32 -39 36 -35 5
4 5 2 2 -4 -4 -6 3 -28 13 -50 11 -21 20 -46 20 -56 0 -10 3 -18 8 -19 31 -3
64 -13 105 -31 43 -20 49 -26 63 -74 8 -28 14 -56 12 -60 -5 -15 24 -78 47
-104 32 -35 41 -69 21 -76 -9 -3 -16 -12 -16 -20 0 -18 -49 -18 -74 1 -20 15
-41 11 -30 -7 4 -7 2 -8 -5 -4 -6 4 -14 0 -17 -9 -4 -11 -9 -13 -13 -6 -4 6
-7 -5 -8 -24 -1 -25 -10 -45 -32 -67 -33 -34 -37 -48 -20 -65 17 -17 4 -40
-22 -38 -20 1 -25 9 -31 46 -5 29 -4 45 3 48 6 2 1 10 -10 18 -12 8 -21 23
-21 33 0 10 -4 20 -10 22 -5 2 -10 19 -11 38 -2 19 -8 42 -15 50 -23 28 -7 56
34 58 41 3 62 23 62 59 0 18 -6 23 -26 23 -20 0 -25 4 -20 16 6 15 4 15 -10 3
-13 -11 -17 -11 -25 3 -6 11 -18 15 -34 12 -14 -2 -25 0 -25 6 0 6 10 10 22 8
11 -2 23 3 26 10 2 7 -2 12 -9 11 -24 -5 -58 11 -64 30 -3 10 -19 33 -36 52
-16 18 -32 44 -36 57 -3 13 -16 43 -28 66 -33 62 -39 101 -24 155 14 52 46
111 60 111 5 0 9 7 9 15 0 8 -4 15 -9 15 -12 0 -33 88 -26 111 5 14 1 19 -12
20 -58 5 -81 3 -104 -8 -15 -7 -29 -10 -32 -7 -3 3 -19 3 -36 -1 -22 -5 -36
-16 -47 -40 -33 -69 -114 -91 -160 -42 -14 15 -27 27 -31 27 -8 0 6 -89 19
-125 6 -16 25 -50 41 -74 26 -39 28 -47 19 -77 -9 -29 -7 -39 14 -69 13 -20
24 -42 24 -49 0 -23 22 -76 30 -71 14 9 69 -19 74 -39 3 -11 2 -23 -2 -26 -4
-3 -8 -16 -10 -29 -1 -14 -11 -33 -22 -43 -11 -10 -20 -22 -20 -26 0 -4 -13
-20 -29 -37 -23 -25 -27 -35 -20 -58 l8 -27 -26 20 c-17 13 -35 18 -58 15 -41
-5 -59 13 -75 75 -19 70 -25 77 -59 72 -17 -2 -31 -10 -31 -17 0 -7 -7 -18
-15 -25 -8 -7 -17 -27 -21 -46 -3 -18 -12 -38 -20 -45 -8 -6 -14 -18 -14 -26
0 -8 -7 -21 -15 -30 -8 -8 -13 -19 -10 -24 4 -5 -7 -9 -23 -9 -17 0 -32 6 -35
13 -6 17 -73 16 -69 0 2 -15 -14 -17 -23 -3 -9 15 -19 12 -33 -11 -11 -16 -10
-27 0 -57 7 -20 17 -40 23 -44 6 -5 5 -8 -2 -8 -7 0 -13 -8 -13 -17 -1 -22
-38 -66 -65 -78 -11 -4 -38 -9 -61 -10 l-41 -2 0 69 c-1 56 -5 74 -22 92 -11
12 -21 26 -21 32 0 5 -11 22 -25 38 -14 16 -25 33 -25 37 0 18 -37 13 -59 -8
-27 -25 -33 -40 -33 -98 -1 -88 2 -105 16 -105 8 0 17 -15 20 -34 4 -18 12
-33 19 -33 6 1 28 -2 49 -7 27 -6 37 -14 41 -32 2 -13 0 -24 -6 -24 -5 0 -4
-7 3 -15 7 -9 10 -18 7 -22 -4 -3 -2 -12 4 -20 7 -7 13 -27 15 -44 3 -21 19
-45 51 -75 25 -24 49 -44 53 -44 4 0 26 -18 51 -40 24 -23 58 -52 76 -66 35
-27 63 -71 63 -101 0 -10 9 -36 21 -57 27 -52 31 -72 13 -87 -8 -6 -14 -19
-14 -29 0 -10 -7 -23 -16 -31 -8 -7 -13 -21 -11 -30 3 -11 -2 -20 -12 -24 -21
-6 -54 -81 -46 -106 4 -11 2 -19 -4 -19 -17 0 -13 -53 6 -91 10 -19 19 -65 21
-106 4 -67 2 -74 -22 -98 -14 -14 -26 -36 -26 -47 0 -37 24 -138 32 -138 4 0
8 6 8 13 0 8 3 7 10 -3 6 -9 5 -19 -2 -28 -30 -35 -20 -248 13 -288 6 -7 6
-22 -2 -40 -11 -31 -22 -116 -21 -174 1 -23 8 -39 23 -51 12 -9 19 -21 15 -28
-4 -6 -5 -11 -1 -11 3 0 10 10 15 23 8 21 9 21 9 1 1 -25 19 -44 37 -37 8 3
14 0 14 -6 0 -6 6 -11 14 -11 26 0 12 -44 -22 -66 -18 -13 -38 -25 -45 -28 -8
-3 -4 -11 11 -24 12 -11 22 -24 22 -29 0 -13 46 -74 52 -68 12 12 68 -18 68
-36 0 -11 5 -16 13 -13 15 5 44 -42 33 -53 -7 -8 -24 -12 -74 -20 -17 -3 -32
-9 -32 -14 0 -5 -17 -9 -38 -9 -26 0 -45 -7 -57 -20 -10 -11 -24 -20 -32 -20
-7 0 -13 -6 -13 -13 0 -8 -19 -20 -42 -27 -62 -18 -61 -18 -79 -9 -11 5 -23 2
-37 -12 -18 -16 -25 -17 -42 -7 -11 7 -20 21 -20 30 0 10 -4 18 -10 18 -20 0
-47 33 -43 50 4 15 1 17 -15 14 -24 -7 -30 7 -27 71 3 54 8 81 17 91 13 12 -3
74 -25 97 -19 22 -38 26 -79 18 -10 -2 -4 -43 10 -68 7 -13 8 -24 3 -27 -5 -4
-12 0 -15 6 -3 7 -4 1 -1 -14 4 -20 1 -28 -9 -28 -8 0 -18 5 -21 10 -3 6 -12
10 -18 10 -8 0 -7 -3 2 -9 17 -11 7 -41 -14 -41 -9 0 -13 -5 -10 -10 9 -15 -2
-12 -30 6 -19 12 -25 25 -25 50 0 19 -4 34 -10 34 -5 0 -10 4 -10 9 0 6 8 8
18 6 11 -2 22 6 29 21 9 20 8 24 -5 25 -11 0 -12 3 -5 6 10 3 9 11 -2 33 -8
15 -20 34 -27 42 -7 7 -19 25 -27 40 -12 24 -12 30 2 51 8 13 29 30 46 37 17
7 31 16 31 21 0 4 16 11 36 15 53 10 77 37 68 77 -7 33 -19 47 -43 47 -8 0
-11 -6 -7 -17 6 -16 6 -16 -12 0 -10 9 -21 15 -24 12 -3 -3 -8 1 -11 10 -4 8
-1 15 6 15 7 0 21 9 30 21 15 17 16 26 8 50 -6 16 -8 36 -5 43 3 8 1 17 -5 21
-6 3 -11 15 -11 26 0 10 -5 19 -10 19 -13 0 -60 49 -60 61 0 5 5 9 10 9 6 0
10 -6 10 -14 0 -9 9 -14 20 -13 23 1 28 17 5 17 -8 0 -15 5 -15 10 0 12 2 12
33 1 18 -7 30 -6 43 4 12 9 14 14 6 15 -7 0 -11 4 -7 9 3 5 1 12 -5 16 -17 10
-11 25 8 18 14 -6 15 -4 4 9 -15 19 -2 31 25 22 13 -4 14 -3 5 3 -17 13 -27
233 -11 233 21 0 50 42 43 63 -4 13 -2 17 5 13 16 -10 14 24 -4 57 -8 15 -10
25 -5 22 6 -4 10 3 10 15 0 13 -4 19 -11 14 -7 -4 -9 0 -5 12 3 11 -1 28 -9
38 -14 19 -15 19 -35 1 -11 -10 -20 -24 -20 -32 0 -10 -6 -12 -21 -8 -20 7
-21 4 -14 -33 l7 -41 -36 10 c-30 8 -39 7 -53 -7 -16 -15 -17 -15 -23 2 -4 11
-2 27 4 37 14 23 -9 39 -43 30 -20 -5 -23 -3 -18 11 4 10 2 26 -3 37 -8 15 -7
21 5 25 9 4 15 18 15 35 0 16 5 29 12 29 9 0 9 3 0 12 -18 18 -15 28 8 28 22
0 28 34 8 44 -7 3 -3 3 10 0 12 -3 22 -1 22 5 0 6 -5 11 -11 11 -6 0 -9 6 -6
13 2 6 10 11 16 9 6 -1 11 4 11 12 0 7 6 19 14 26 21 17 9 38 -26 45 -16 4
-32 13 -35 21 -6 16 -34 19 -49 5 -10 -10 -39 -15 -64 -11 -9 1 -5 6 10 11 23
8 22 8 -8 5 -37 -3 -40 6 -12 52 21 34 47 41 79 20 15 -9 23 -9 35 2 9 7 14
15 12 18 -3 3 6 18 19 34 14 16 25 34 25 39 0 5 7 9 15 9 8 0 15 7 15 15 0 8
5 15 10 15 6 0 10 7 10 16 0 8 -4 13 -9 10 -5 -3 -11 15 -14 42 -3 26 -9 61
-12 79 -5 21 -2 39 8 53 12 17 13 29 5 53 -22 65 -34 66 -107 11 -24 -19 -52
-34 -62 -34 -10 0 -24 -7 -33 -15 -8 -9 -19 -15 -23 -14 -20 3 -66 -4 -51 -8
23 -6 23 -16 -1 -37 -24 -22 -44 -12 -35 16 6 19 -27 61 -51 64 -5 1 -15 2
-21 3 -5 0 -16 17 -24 36 -8 19 -18 35 -22 35 -5 0 -12 8 -15 18 -4 9 -13 23
-20 30 -15 16 -17 32 -3 32 6 0 10 5 10 10 0 6 -7 10 -15 10 -8 0 -16 7 -16
15 -3 28 -4 33 -11 40 -4 4 -1 16 5 27 9 16 9 22 0 25 -7 3 -13 9 -13 14 0 5
-8 21 -17 35 -9 14 -18 36 -19 50 -1 13 -7 31 -13 41 -8 13 -11 -69 -10 -293
l1 -312 32 -35 c24 -26 30 -39 22 -47 -8 -8 -6 -15 6 -24 10 -7 18 -18 18 -25
0 -6 7 -11 16 -11 10 0 14 -6 10 -15 -3 -8 2 -18 11 -23 25 -15 10 -34 -29
-37 -27 -1 -35 2 -31 12 3 9 -3 13 -20 13 -14 0 -28 6 -30 13 -3 6 -6 -502 -6
-1129 l-1 -1141 30 -7 c21 -4 42 1 66 13 l35 19 -24 26 c-27 28 -67 168 -67
231 0 33 18 72 47 103 7 7 19 22 27 33 23 33 81 41 144 19 138 -49 161 -73
173 -187 4 -43 8 -83 8 -89 1 -14 39 -25 43 -13 2 5 20 11 41 14 22 3 65 14
98 24 68 23 187 27 195 7 6 -16 49 -9 64 9 8 9 29 11 73 7 49 -4 68 -11 91
-32 16 -15 46 -33 67 -40 36 -12 40 -11 76 17 67 51 113 64 142 40 9 -8 48
-19 86 -27 39 -7 77 -17 85 -21 8 -4 36 -11 61 -14 28 -4 54 -14 65 -26 18
-20 18 -21 -5 -38 l-24 -18 20 -20 c20 -20 20 -21 2 -37 -11 -9 -19 -13 -19
-11 0 3 -13 -1 -30 -10 -16 -9 -30 -20 -30 -26 0 -6 -4 -7 -10 -4 -5 3 -10 2
-10 -4 0 -5 -13 -12 -29 -16 -40 -8 -47 -40 -16 -71 13 -13 37 -25 52 -25 15
-1 39 -3 53 -4 85 -9 171 -7 210 4 62 18 173 19 194 2 12 -10 16 -10 16 -1 0
8 8 10 23 7 12 -3 42 -2 67 3 27 5 50 4 57 -1 7 -7 13 -5 15 3 4 10 10 10 29
2 14 -7 33 -8 47 -3 31 12 80 13 128 5 28 -5 44 -4 49 4 4 6 15 8 26 5 10 -4
24 -3 30 1 18 11 98 14 104 3 4 -5 18 -1 36 11 31 22 37 51 20 92 -53 128 -83
221 -101 313 -12 61 -29 139 -38 175 -19 79 -17 118 10 147 26 27 67 28 60 1
-5 -22 16 -24 24 -3 4 8 14 15 23 15 14 0 14 -2 1 -11 -12 -9 -12 -10 3 -5 10
3 21 6 23 6 3 0 2 5 -2 12 -4 7 -3 8 4 4 6 -4 9 -13 5 -21 -3 -9 1 -15 10 -15
16 0 78 -36 110 -64 15 -15 17 -14 17 2 0 14 2 15 10 2 8 -12 10 -12 16 3 4
10 12 16 20 13 7 -3 14 0 16 6 2 6 14 13 26 15 20 3 25 -4 21 -33 0 -3 10 -14
22 -25 13 -11 17 -19 9 -19 -7 0 -10 -3 -7 -7 4 -3 -2 -12 -12 -20 -23 -15
-17 -53 8 -54 12 0 11 -2 -4 -9 -20 -9 -20 -9 0 -9 49 -2 81 -59 46 -81 -10
-6 -9 -10 5 -19 17 -9 17 -10 2 -11 -10 0 -18 -4 -18 -10 0 -5 7 -7 15 -4 8 4
15 2 15 -4 0 -6 -6 -12 -12 -14 -9 -3 -8 -10 5 -22 14 -14 26 -17 55 -11 30 5
35 4 25 -6 -10 -10 -7 -15 17 -25 19 -9 28 -18 24 -27 -3 -8 -1 -18 5 -22 7
-4 11 3 12 17 0 23 0 23 9 2 4 -12 15 -24 24 -27 21 -8 20 -27 -1 -27 -14 0
-12 -5 10 -26 16 -14 25 -29 22 -32 -4 -4 -11 1 -17 11 -8 14 -13 16 -24 6 -8
-6 -14 -19 -14 -28 0 -23 29 -63 41 -56 5 4 9 1 9 -4 0 -6 -10 -11 -22 -11
-13 0 -18 -4 -12 -8 19 -13 25 -42 9 -49 -10 -3 -13 -12 -9 -25 3 -11 2 -18
-3 -15 -5 3 -15 1 -23 -4 -12 -8 -11 -9 5 -7 15 2 21 -3 23 -25 2 -15 8 -27
14 -27 7 0 6 -5 -1 -14 -7 -8 -8 -17 -3 -20 14 -9 7 -67 -9 -77 -8 -5 -9 -9
-3 -9 15 0 15 -102 0 -112 -7 -5 -7 -8 2 -8 6 0 12 -4 12 -10 0 -5 -7 -7 -15
-4 -27 11 -19 -49 10 -74 14 -12 25 -28 25 -36 0 -17 -35 -30 -52 -20 -7 4 -4
-2 6 -14 17 -19 17 -22 3 -22 -10 0 -17 -4 -17 -10 0 -5 5 -10 10 -10 6 0 10
-4 10 -10 0 -5 -7 -10 -16 -10 -9 0 -12 -5 -8 -12 5 -8 0 -9 -14 -6 -12 4 -20
2 -17 -2 3 -5 19 -11 36 -15 16 -4 57 -18 90 -31 33 -14 64 -22 69 -19 6 4 10
2 10 -3 0 -4 16 -16 35 -25 19 -9 35 -12 35 -7 0 6 -4 10 -10 10 -5 0 -10 5
-10 11 0 5 5 7 10 4 16 -10 11 22 -6 39 -19 19 -26 20 -43 4 -9 -9 -12 -10 -9
-1 2 6 -6 19 -17 27 -11 9 -14 16 -7 16 15 0 16 30 0 30 -6 0 -3 7 8 15 19 14
19 14 -1 15 -13 0 -16 3 -8 8 13 9 12 44 -2 54 -5 4 1 11 14 16 17 6 21 11 12
16 -9 6 -9 11 -1 21 8 10 8 19 1 34 -6 11 -8 28 -5 38 5 15 4 15 -5 3 -9 -13
-11 -12 -11 6 0 13 -8 24 -20 27 -17 4 -20 14 -20 60 0 52 2 55 40 82 38 26
70 65 74 89 1 6 5 16 9 23 14 23 23 165 13 209 -4 17 -2 42 3 56 5 14 7 28 4
32 -3 3 -5 42 -5 88 1 72 -10 129 -36 198 -3 8 -4 18 -4 23 1 4 -7 26 -18 50
l-21 42 30 -35 c24 -28 29 -31 24 -13 -3 15 5 39 26 71 17 27 31 58 31 70 0
15 8 24 25 28 14 3 22 10 19 15 -3 5 -1 9 5 9 14 0 29 -32 23 -49 -2 -7 6 -35
18 -61 l22 -48 -26 -57 c-14 -32 -26 -58 -26 -59 0 -1 22 -19 50 -40 30 -23
54 -51 62 -72 6 -19 16 -34 20 -34 5 0 -1 -18 -12 -40 -11 -21 -20 -46 -20
-54 0 -8 -16 -37 -35 -66 -20 -30 -35 -64 -35 -81 0 -31 -17 -39 -26 -14 -4 8
-15 15 -26 15 -13 0 -17 -4 -12 -12 5 -8 0 -7 -11 2 -17 14 -18 13 -12 -25 4
-22 7 -69 7 -104 0 -52 2 -61 13 -52 10 8 14 7 14 -4 0 -7 -5 -13 -10 -12 -5
1 -13 -8 -18 -20 -10 -28 -3 -29 25 -6 15 13 14 9 -4 -11 -18 -22 -21 -28 -8
-23 21 7 34 -9 20 -26 -7 -8 -7 -29 -2 -57 13 -63 12 -138 -1 -185 l-12 -40
-12 40 c-7 22 -13 36 -14 30 -1 -5 -8 1 -17 13 -8 12 -21 22 -27 22 -8 0 -7
-3 2 -9 9 -6 10 -10 2 -12 -9 -3 -6 -19 8 -53 22 -50 28 -112 11 -101 -11 7
-6 -72 10 -157 9 -47 51 -111 64 -97 2 2 14 58 26 124 22 119 23 247 4 357 -5
30 -3 38 9 38 22 0 32 -20 16 -31 -11 -7 -10 -9 3 -9 16 0 22 -12 30 -65 3
-17 11 -20 47 -18 24 1 45 3 46 5 2 2 5 30 8 63 5 65 14 74 50 50 19 -12 41
-14 110 -9 95 7 88 10 99 -60 2 -11 10 -20 18 -22 8 -2 25 -6 37 -9 17 -6 22
-2 25 16 3 27 47 53 72 43 9 -3 19 -17 22 -30 7 -29 12 -29 44 -4 33 26 39 25
51 -6 5 -15 12 -24 16 -21 3 4 0 20 -7 36 -11 28 -4 78 17 114 10 17 34 -34
40 -83 3 -27 9 -50 14 -50 4 0 5 15 2 34 -3 19 -1 36 6 40 6 4 11 0 11 -9 0
-9 5 -13 10 -10 6 4 8 11 4 16 -3 5 -3 23 1 39 6 29 9 30 58 30 60 0 157 -44
195 -88 13 -15 41 -46 63 -69 25 -26 39 -51 39 -67 0 -14 -3 -26 -8 -26 -9 0
-21 -29 -62 -140 -17 -47 -40 -103 -50 -125 l-20 -40 72 -3 c61 -3 75 0 86 15
80 112 107 138 95 93 -3 -11 -9 -18 -13 -15 -5 3 -6 -5 -2 -17 3 -14 2 -19 -6
-14 -7 4 -13 2 -13 -3 -4 -32 -6 -36 -15 -34 -6 1 -11 -5 -11 -13 0 -11 7 -14
26 -9 14 4 28 11 29 16 2 5 10 9 18 9 8 0 14 9 14 20 0 11 3 19 8 18 7 -1 50
36 170 150 37 34 72 60 79 58 7 -3 12 -2 10 3 -6 21 188 154 216 147 10 -2 14
0 10 7 -4 6 0 8 9 4 9 -3 25 3 37 14 12 11 21 17 21 14 0 -4 13 3 29 14 16 12
36 18 45 15 9 -3 16 -1 16 6 0 6 -4 8 -10 5 -5 -3 -10 -1 -10 4 0 6 6 11 13
11 8 0 22 9 32 20 10 11 23 20 29 20 6 0 4 -5 -4 -10 -8 -5 -11 -10 -6 -10 6
0 22 12 37 26 22 22 27 23 33 9 3 -9 2 -13 -4 -10 -6 3 -10 1 -10 -4 0 -6 10
-10 23 -8 13 1 21 -3 20 -10 -2 -7 4 -10 12 -7 8 4 12 10 9 16 -3 5 3 4 13 -3
24 -14 81 -5 109 17 16 13 17 15 2 10 -12 -3 -18 0 -18 10 0 9 5 12 12 8 8 -5
9 -2 5 11 -4 9 -3 23 2 29 7 8 5 21 -4 40 -18 34 -19 39 -4 30 8 -4 8 0 0 15
-7 12 -8 21 -4 20 20 -3 30 2 30 16 0 8 -4 15 -7 15 -4 0 0 15 9 34 13 27 19
32 30 22 12 -9 13 -8 8 7 -6 15 -3 17 14 12 16 -5 19 -4 14 5 -5 9 -2 10 14 5
12 -4 21 -2 21 4 0 6 -4 11 -10 11 -5 0 -10 4 -10 9 0 4 11 6 24 4 13 -3 27 0
30 6 4 6 12 11 18 11 6 0 -1 -11 -16 -25 -14 -13 -26 -33 -26 -45 0 -11 -4
-20 -9 -20 -13 0 -6 -49 9 -63 10 -10 12 -8 7 6 -4 9 -2 17 3 17 6 0 10 -7 10
-15 0 -8 4 -15 9 -15 5 0 12 -11 15 -25 4 -14 11 -25 16 -25 6 0 10 -6 10 -14
0 -19 94 -61 214 -96 55 -16 141 -45 191 -65 49 -19 91 -35 92 -35 2 0 3 9 3
20 0 11 -7 20 -15 20 -9 0 -12 6 -8 17 3 10 3 15 -2 11 -14 -13 -47 12 -40 30
5 13 3 14 -6 5 -14 -14 -39 -6 -39 14 0 8 -5 11 -10 8 -14 -9 -42 14 -33 27 3
6 0 9 -8 6 -15 -5 -39 14 -39 31 0 6 -11 11 -25 11 -14 0 -25 5 -25 10 0 6
-10 10 -22 10 -19 0 -20 2 -8 10 8 5 11 10 6 10 -5 0 -2 8 5 17 13 16 13 16
-10 1 -21 -15 -25 -15 -38 -2 -10 10 -19 11 -27 5 -7 -6 -17 -6 -26 -1 -13 9
-13 10 0 10 9 0 7 5 -8 16 -20 14 -30 18 -62 23 -3 1 2 6 10 11 12 8 13 12 2
19 -11 7 -11 9 2 14 9 4 16 13 16 21 0 8 5 18 12 22 8 5 9 2 5 -9 -5 -12 -1
-17 13 -17 10 0 22 5 25 10 7 12 25 4 25 -11 0 -6 -4 -8 -9 -4 -5 3 -13 0 -17
-6 -5 -9 1 -10 20 -5 16 4 26 2 26 -4 0 -6 5 -8 10 -5 6 3 10 1 10 -5 0 -8 9
-10 24 -6 20 5 26 1 35 -25 6 -17 15 -28 21 -24 5 3 10 8 10 11 0 3 -5 2 -12
-2 -7 -4 -8 -3 -4 5 6 9 14 8 33 -5 24 -15 26 -15 20 0 -5 13 -3 15 12 7 10
-6 21 -7 25 -4 3 3 6 1 6 -5 0 -7 4 -12 9 -12 6 0 30 -13 54 -30 25 -16 48
-30 51 -30 3 0 6 136 6 302 0 298 0 302 -22 327 -13 14 -16 20 -8 13 23 -20
30 -14 30 23 0 22 -6 38 -15 41 -8 4 -12 10 -9 15 3 5 10 7 15 4 5 -4 9 11 9
31 0 28 -7 44 -32 69 -52 51 -92 99 -109 131 -9 18 -23 29 -36 28 -18 0 -19 2
-7 25 14 27 9 45 -6 21 -9 -13 -10 -13 -10 0 0 8 -16 37 -35 65 -18 27 -31 53
-28 58 3 5 -4 4 -15 -2 -26 -14 -43 -14 -19 0 9 5 17 16 17 23 0 14 56 30 71
20 5 -3 9 0 9 5 0 6 6 11 13 11 6 0 49 9 94 21 85 22 107 42 31 29 -23 -5 -52
-4 -64 0 -12 5 -24 6 -27 3 -3 -3 -3 4 0 16 3 12 10 21 15 21 6 0 7 -8 4 -17
-5 -16 -4 -16 8 1 9 11 22 16 31 13 8 -4 15 -2 15 4 0 6 8 8 18 5 10 -4 7 2
-8 13 l-25 20 25 27 c14 15 19 24 11 19 -11 -6 -13 -4 -8 8 4 11 2 14 -7 11
-7 -3 -16 2 -19 10 -4 10 -13 13 -23 9 -12 -4 -15 -2 -12 8 3 8 10 13 16 12
17 -4 -2 40 -19 45 -11 3 -11 1 1 -7 8 -6 13 -11 10 -12 -3 0 -13 -2 -22 -4
-10 -2 -18 1 -18 7 0 7 -5 6 -14 -1 -10 -8 -16 -9 -21 -1 -3 5 1 10 9 10 9 0
16 9 16 21 0 11 -4 17 -10 14 -19 -12 -31 6 -15 21 16 17 21 39 6 30 -5 -3
-14 1 -21 9 -7 8 -10 15 -7 15 3 0 0 12 -8 27 -12 23 -12 28 1 38 9 6 14 17
12 25 -2 8 4 15 12 14 11 -1 15 11 15 47 -1 27 -6 54 -13 61 -17 17 -15 29 3
22 11 -5 13 1 10 27 -2 18 1 39 7 47 9 10 9 16 -1 22 -9 5 -11 17 -7 35 4 16
3 24 -3 21 -16 -11 -22 12 -9 34 11 17 11 22 -2 30 -13 8 -12 10 3 10 9 0 17
5 17 11 0 5 -4 7 -10 4 -5 -3 -20 1 -33 9 -23 16 -23 18 -19 153 2 76 1 135
-2 132 -6 -6 -10 -53 -15 -171 0 -16 -6 -28 -12 -28 -6 0 -8 8 -5 18 3 9 2 23
-2 30 -5 7 -14 -21 -21 -70 -7 -46 -18 -101 -24 -123 -6 -22 -12 -49 -14 -59
-2 -11 -6 -22 -10 -25 -8 -8 8 95 21 137 12 36 24 198 16 207 -5 6 -8 34 -7
62 1 28 -1 49 -5 46 -5 -2 -8 9 -8 26 0 20 -8 35 -27 50 -16 11 -23 21 -16 21
6 0 15 -4 18 -10 3 -5 12 -10 18 -10 14 0 11 78 -5 97 -6 7 -4 13 4 17 7 3 4
4 -6 3 -10 -1 -21 3 -23 9 -2 7 4 11 14 10 13 -1 17 5 16 24 -2 14 -3 42 -3
62 -1 21 -5 40 -11 43 -5 4 -9 15 -9 25 0 12 -13 26 -30 35 -16 9 -30 20 -30
26 0 6 5 7 10 4 6 -3 10 -2 10 4 0 5 -5 11 -11 13 -6 2 -26 51 -45 108 -71
223 -100 295 -142 352 -23 31 -46 59 -51 63 -17 10 -40 -49 -52 -129 -6 -42
-14 -74 -18 -72 -3 2 -7 -8 -8 -22 0 -15 -6 -28 -12 -30 -6 -2 -8 -9 -5 -15 3
-7 -3 -1 -14 13 -13 16 -17 29 -11 36 11 14 1 24 -24 24 -17 0 -18 -2 -6 -17
8 -9 9 -14 3 -10 -6 3 -11 0 -11 -8 0 -8 4 -12 9 -9 4 3 8 -2 8 -10 0 -8 -5
-18 -12 -22 -7 -5 -5 -12 8 -22 12 -9 13 -13 4 -10 -8 3 -21 -2 -28 -11 -12
-14 -13 -14 -8 1 3 12 1 15 -10 11 -7 -3 -14 0 -14 6 0 6 -7 11 -15 11 -22 0
-18 -21 5 -27 11 -3 20 -9 20 -14 0 -5 -12 -3 -26 3 -17 8 -24 18 -21 30 3 10
1 18 -4 18 -14 0 -11 40 4 41 6 0 1 6 -13 12 -14 6 -31 18 -39 25 -11 11 -9
12 13 8 28 -5 33 3 14 23 -11 11 -8 12 14 7 26 -6 44 4 31 18 -4 4 -8 12 -9
19 -1 7 -5 24 -9 40 -5 19 -3 27 5 27 9 0 8 6 -3 18 -10 10 -17 21 -17 25 0 8
62 42 71 39 4 0 2 9 -4 23 -13 25 -27 24 -27 -3 -1 -16 -1 -16 -10 0 -10 16
-45 17 -59 2 -3 -4 2 -5 11 -1 17 6 33 -17 22 -34 -10 -17 -34 -10 -27 9 6 15
5 15 -10 3 -15 -12 -17 -12 -11 3 9 23 -2 20 -42 -10 -19 -15 -34 -23 -34 -19
0 10 40 45 52 45 4 0 8 5 8 11 0 6 -5 9 -12 7 -12 -4 -48 25 -48 40 0 12 -77
45 -89 38 -6 -4 -14 0 -17 8 -4 10 -17 15 -38 15 -17 -1 -53 2 -81 6 -27 4
-155 8 -282 8 -128 0 -233 3 -233 8 0 4 8 7 18 7 9 0 51 3 92 8 88 11 460 11
508 1 38 -8 44 9 7 23 -14 5 -25 14 -25 20 0 5 -22 10 -50 10 -42 0 -48 -2
-43 -17 4 -11 3 -14 -6 -9 -22 14 -268 29 -276 17 -2 -4 -36 -6 -75 -5 -39 2
-104 -4 -143 -12 -81 -16 -240 -67 -284 -89 -15 -8 -33 -15 -40 -15 -7 0 -29
-10 -50 -21 -77 -43 -151 -79 -164 -79 -8 0 -31 -9 -51 -20 -20 -10 -63 -22
-95 -25 -32 -4 -62 -10 -68 -15 -14 -11 -144 -17 -138 -6 8 12 -187 0 -199
-12 -8 -8 9 -11 142 -27 14 -2 33 -4 43 -4 24 -1 21 -21 -4 -21 -11 0 -29 -5
-40 -11 -11 -5 -32 -12 -47 -14 -49 -6 -120 -43 -127 -65 -6 -20 -12 -22 -58
-16 -29 3 -55 6 -59 6 -5 0 -8 7 -8 15 0 18 -23 19 -52 4 -19 -10 -20 -9 -14
14 13 53 26 77 41 77 8 0 15 5 15 10 0 6 -7 10 -16 10 -22 0 -12 24 12 28 44
6 100 27 120 44 11 10 24 15 27 11 4 -3 7 1 7 10 0 10 4 17 9 17 5 0 11 9 14
21 6 24 -27 132 -42 137 -6 2 -11 10 -11 17 0 7 -7 15 -15 19 -8 3 -15 12 -15
21 0 22 -50 8 -72 -21 -10 -12 -28 -24 -40 -27 -13 -4 -34 -24 -48 -47 -14
-22 -30 -40 -37 -40 -7 0 -13 -4 -13 -8 0 -5 -6 -9 -12 -10 -7 -1 -24 -3 -38
-6 -14 -2 -35 -4 -47 -5 -14 -1 -23 -9 -25 -23 -2 -12 -9 -23 -17 -26 -8 -3
-11 0 -7 7 5 7 -1 11 -13 11 -12 0 -21 -7 -21 -15 0 -18 -1 -18 -35 -5 -17 7
-24 7 -20 0 3 -6 -1 -10 -9 -10 -9 0 -16 -4 -16 -9 0 -5 -9 -13 -20 -16 -11
-4 -35 -20 -52 -36 -18 -16 -38 -29 -45 -29 -7 0 -13 -4 -13 -10 0 -15 -73
-12 -96 5 -30 20 -53 75 -47 108 3 15 9 27 13 27 5 0 11 22 15 48 5 41 2 58
-25 116 -28 63 -47 119 -71 220 -10 40 -6 75 14 134 8 23 8 35 1 40 -6 4 -14
14 -17 22 -3 8 -6 10 -6 5z m-541 -193 c0 -8 -37 -42 -46 -42 -3 0 -2 5 1 10
3 6 1 10 -6 10 -8 0 -8 4 -1 13 12 14 52 20 52 9z m3070 -222 c0 -5 -4 -10
-10 -10 -5 0 -10 5 -10 10 0 6 5 10 10 10 6 0 10 -4 10 -10z m45 0 c3 -5 2
-10 -4 -10 -5 0 -13 5 -16 10 -3 6 -2 10 4 10 5 0 13 -4 16 -10z m-620 -50 c3
-5 -1 -10 -10 -10 -9 0 -13 5 -10 10 3 6 8 10 10 10 2 0 7 -4 10 -10z m784
-246 c-17 -20 -29 -17 -29 7 0 12 -8 23 -19 26 -11 3 -18 12 -16 21 2 10 4 22
5 27 0 6 16 -7 36 -28 29 -31 33 -41 23 -53z m-103 8 c6 -28 18 -52 26 -52 6
0 5 -6 -2 -15 -15 -18 -26 -12 -45 26 -13 24 -13 32 -3 43 12 13 21 12 24 -2z
m-1952 -37 c4 -10 -7 -21 -33 -35 -33 -17 -56 -48 -52 -72 1 -5 -3 -8 -9 -8
-5 0 -10 -6 -10 -14 0 -8 -9 -17 -19 -21 -11 -3 -22 -12 -25 -20 -3 -8 -12
-15 -21 -15 -8 0 -15 -4 -15 -10 0 -5 -12 -10 -27 -10 -28 -1 -93 -50 -93 -70
0 -5 -7 -7 -15 -4 -10 4 -13 0 -10 -16 4 -21 2 -21 -88 -18 -51 1 -95 7 -100
13 -5 6 -12 4 -20 -6 -6 -9 -17 -14 -23 -12 -7 2 -18 -3 -26 -11 -21 -20 -141
-16 -187 7 -18 9 -37 14 -42 11 -5 -3 -9 -29 -10 -57 0 -29 -6 -68 -12 -87
-11 -31 -16 -35 -44 -34 l-32 2 23 -37 c37 -61 66 -138 63 -169 -4 -39 -33
-82 -54 -82 -9 0 -21 -7 -28 -16 -11 -15 -14 -15 -33 7 -12 12 -22 32 -21 43
0 12 3 16 5 10 3 -7 14 -10 25 -7 14 4 18 11 13 22 -3 9 -9 24 -11 34 -3 9 -9
17 -14 17 -5 0 -9 9 -9 19 0 11 -4 22 -9 26 -5 3 -12 18 -16 34 -3 16 -17 40
-29 53 -13 13 -26 30 -29 38 -3 10 -6 6 -7 -10 -1 -14 -2 -28 -1 -33 0 -4 -8
-16 -19 -27 -16 -16 -20 -17 -20 -5 0 8 -6 15 -12 15 -7 0 -14 11 -14 24 -1
15 3 23 10 20 8 -3 16 25 24 85 17 128 32 189 48 206 9 8 12 20 9 26 -4 6 -1
9 6 7 8 -1 28 2 44 9 17 6 86 16 155 22 270 26 312 31 371 46 33 9 106 25 162
35 56 11 127 24 157 30 74 14 110 30 110 46 0 18 6 18 14 -1z m1905 12 c-2 -1
-13 -9 -24 -17 -19 -14 -19 -14 -6 3 7 9 18 17 24 17 6 0 8 -1 6 -3z m216 -26
c-3 -6 -14 -10 -23 -10 -15 1 -15 2 1 6 9 2 17 9 17 15 0 6 3 9 6 5 3 -3 3
-10 -1 -16z m-121 -35 c-3 -9 -13 -16 -22 -16 -13 0 -12 3 3 20 20 23 29 21
19 -4z m164 12 c-2 -6 -10 -14 -16 -16 -7 -2 -10 2 -6 12 7 18 28 22 22 4z
m-100 -38 c7 -11 9 -20 4 -20 -4 0 -13 9 -20 20 -7 11 -9 20 -4 20 4 0 13 -9
20 -20z m-1733 0 c-28 -12 -37 -12 -30 0 3 6 16 10 28 9 21 0 21 -1 2 -9z
m1765 -15 c0 -15 -6 -25 -14 -25 -11 0 -12 5 -3 25 15 31 17 31 17 0z m-3820
-25 c0 -5 -7 -7 -15 -4 -8 4 -12 10 -9 15 6 11 24 2 24 -11z m1952 6 c7 4 8 2
4 -4 -8 -14 -36 -16 -36 -4 0 14 14 24 18 13 2 -6 9 -8 14 -5z m-206 -91 c10
-69 -5 -91 -21 -31 -7 28 -11 56 -8 63 10 26 22 12 29 -32z m2284 -7 c0 -5 -7
-3 -15 6 -8 8 -15 18 -15 22 0 3 7 1 15 -6 8 -7 15 -17 15 -22z m-2210 -3 c0
-8 -4 -15 -10 -15 -5 0 -10 7 -10 15 0 8 5 15 10 15 6 0 10 -7 10 -15z m50 5
c0 -6 -7 -22 -16 -35 -9 -13 -17 -30 -18 -37 -2 -14 -57 -103 -77 -127 -10
-11 -13 -11 -21 3 -5 9 -6 22 -2 29 4 6 -3 3 -15 -8 -16 -14 -22 -15 -19 -5 2
8 -3 14 -10 12 -8 -1 -11 2 -8 7 10 16 -10 21 -27 8 -14 -11 -12 -15 18 -37
19 -14 35 -31 35 -38 0 -8 9 -16 20 -19 11 -3 20 -12 20 -20 0 -8 5 -11 11 -8
7 5 8 -5 3 -31 -11 -58 -44 -82 -44 -32 0 10 -5 18 -11 18 -6 0 -9 -16 -7 -37
2 -30 7 -37 21 -35 15 3 17 -2 11 -38 -5 -33 -4 -40 9 -40 9 0 24 -12 33 -26
11 -16 24 -24 35 -21 10 3 28 -5 41 -17 12 -11 25 -21 28 -21 3 0 4 -18 2 -39
-3 -43 20 -76 70 -102 19 -10 25 -19 21 -30 -5 -13 -2 -15 17 -9 15 5 20 4 16
-4 -4 -6 -2 -11 4 -11 7 0 9 -7 6 -16 -5 -14 -4 -15 8 -5 11 9 14 8 12 -6 0
-10 5 -17 12 -15 10 2 11 -4 7 -19 -5 -13 -3 -19 3 -15 10 6 25 -9 35 -35 4
-13 1 -16 -15 -11 -13 3 -16 7 -8 12 8 5 8 10 2 14 -23 14 -20 -25 3 -40 22
-14 23 -16 7 -33 -9 -10 -20 -16 -25 -14 -4 2 -15 2 -25 -1 -12 -4 -17 -16
-16 -43 2 -59 3 -63 19 -63 9 0 12 6 8 17 -6 15 -5 16 9 3 14 -14 13 -18 -15
-42 -17 -16 -26 -28 -21 -28 14 0 -19 -20 -33 -20 -7 0 -22 9 -34 21 -11 11
-24 18 -27 14 -4 -3 0 -10 7 -14 8 -5 10 -14 6 -21 -5 -9 -2 -10 13 -6 21 7
32 -8 37 -54 3 -21 2 -23 -8 -9 -10 14 -14 14 -25 3 -7 -8 -10 -19 -7 -24 3
-6 1 -10 -4 -10 -6 0 -11 -7 -11 -16 0 -12 -6 -15 -22 -11 -22 6 -22 6 -4 -8
18 -14 18 -15 2 -15 -18 0 -46 -22 -46 -37 0 -4 -14 -14 -30 -21 -32 -15 -31
-37 1 -27 13 4 19 2 19 -9 0 -9 5 -16 11 -16 5 0 8 3 6 8 -3 4 15 7 39 8 32 1
44 -3 44 -13 0 -12 4 -11 22 1 22 15 83 23 63 8 -14 -10 -35 -72 -24 -72 5 0
9 5 9 12 0 6 3 8 6 5 4 -4 1 -14 -7 -24 -9 -11 -10 -14 -1 -9 8 5 12 0 12 -14
0 -12 -4 -19 -9 -16 -5 3 -15 -2 -22 -11 -12 -15 -12 -16 4 -10 9 3 17 2 17
-3 0 -6 -5 -10 -11 -10 -15 0 -43 -30 -35 -37 3 -4 13 2 21 13 8 10 15 14 15
7 0 -6 -5 -15 -11 -18 -6 -4 -8 -14 -5 -22 3 -8 1 -11 -4 -8 -6 3 -10 2 -10
-4 0 -6 -6 -8 -14 -5 -7 3 -16 -2 -19 -10 -4 -9 -13 -13 -22 -10 -11 5 -14 2
-9 -11 6 -14 3 -16 -17 -10 -23 7 -99 81 -99 96 0 4 -13 23 -30 41 -16 18 -30
38 -30 45 0 6 -5 15 -12 19 -7 4 -8 3 -4 -4 11 -18 -2 -14 -23 7 -11 11 -17
22 -13 25 3 3 -4 6 -16 6 -31 0 -47 88 -36 210 4 52 7 194 5 315 -2 234 1 265
24 265 12 0 14 10 10 53 -17 185 -16 237 4 258 30 33 10 68 -39 69 -14 0 -37
8 -52 18 -22 14 -25 21 -16 30 15 15 3 16 -22 2 -15 -8 -21 -2 -40 50 -18 49
-20 63 -10 75 12 14 18 11 52 -24 21 -22 38 -49 38 -61 0 -31 43 -26 98 12 26
18 49 33 52 33 10 1 65 40 73 52 22 35 57 55 57 33z m63 -6 c6 -6 -35 -44 -48
-44 -7 0 28 49 36 50 3 0 9 -3 12 -6z m1997 -50 c0 -2 -7 -4 -15 -4 -8 0 -15
4 -15 10 0 5 7 7 15 4 8 -4 15 -8 15 -10z m-3758 -11 c10 18 78 21 78 3 0 -7
14 -25 30 -39 17 -15 30 -32 30 -37 0 -6 7 -10 15 -10 18 0 19 -13 3 -57 -7
-18 -18 -33 -25 -33 -8 0 -17 -8 -20 -17 -9 -23 -40 -53 -55 -53 -12 0 -62 66
-63 83 0 4 -3 6 -7 5 -10 -4 -37 35 -32 44 3 4 -2 21 -11 38 -13 25 -13 30 -1
30 18 0 27 25 19 48 -6 15 -5 15 12 -1 16 -16 19 -17 27 -4z m-212 -7 c0 -9 8
-12 25 -8 26 5 26 5 29 -65 1 -13 -5 -17 -21 -15 -16 2 -23 -2 -23 -12 0 -21
-9 -20 -32 1 -15 14 -21 15 -27 4 -6 -10 -10 -10 -16 -2 -4 7 -14 11 -23 10
-25 -3 -52 11 -52 27 0 8 10 28 22 44 19 26 28 30 70 30 34 0 48 -4 48 -14z
m1524 -67 c24 -34 27 -46 20 -68 -13 -36 -44 -41 -44 -7 0 14 -9 33 -19 43
-15 14 -22 52 -12 71 6 12 31 -6 55 -39z m353 6 c0 -21 -33 -49 -42 -36 -3 6
-2 11 4 11 5 0 13 9 16 20 7 23 22 27 22 5z m-1317 -167 c0 -4 -7 -8 -15 -8
-10 0 -15 10 -15 28 1 26 1 26 15 8 8 -11 15 -23 15 -28z m3876 8 c20 -21 17
-28 -6 -16 -11 6 -20 15 -20 20 0 14 9 12 26 -4z m-3926 -6 c0 -5 -5 -10 -11
-10 -5 0 -7 5 -4 10 3 6 8 10 11 10 2 0 4 -4 4 -10z m3943 -80 c2 -20 7 -41
11 -49 4 -7 5 -15 1 -19 -4 -4 -10 -1 -12 6 -3 6 -9 10 -14 6 -5 -3 -9 2 -9
10 0 9 5 16 10 16 6 0 10 5 10 10 0 6 -7 10 -15 10 -8 0 -15 7 -15 16 0 8 5
12 10 9 6 -3 10 -1 10 4 0 6 -4 11 -10 11 -5 0 -10 8 -10 17 0 33 29 -9 33
-47z m-3941 27 c5 -9 16 -17 25 -17 11 0 13 -4 5 -12 -5 -7 -9 -24 -7 -38 2
-31 -15 -60 -35 -60 -8 0 -24 -7 -34 -15 -22 -17 -40 -20 -31 -5 5 9 -11 15
-59 22 -37 6 -37 84 -1 126 2 2 23 6 46 8 24 3 45 7 47 9 8 8 35 -3 44 -18z
m98 -27 c0 -5 -8 -10 -17 -10 -15 0 -16 2 -3 10 19 12 20 12 20 0z m918 -54
c4 7 19 12 35 12 25 0 27 -3 27 -42 0 -22 3 -64 6 -91 6 -51 6 -51 -22 -50
-26 0 -29 -3 -26 -27 2 -21 -2 -28 -14 -28 -10 0 -14 -5 -11 -14 9 -23 -5 -27
-22 -7 -9 9 -26 20 -38 23 -19 5 -20 4 -10 -13 8 -13 13 -15 20 -6 5 8 7 3 6
-13 -4 -42 8 -65 36 -65 24 0 29 6 26 34 -2 7 2 10 8 6 6 -3 11 -13 11 -21 0
-8 4 -14 9 -14 5 0 7 19 4 42 -4 28 -3 39 5 34 5 -3 13 0 15 6 3 7 6 2 7 -12
1 -14 3 -41 6 -61 4 -31 1 -37 -21 -47 -24 -11 -34 -32 -15 -32 5 0 7 -8 4
-17 -5 -14 -4 -15 4 -4 6 8 8 20 5 28 -3 7 1 13 10 13 11 0 16 -13 19 -46 2
-25 1 -47 -2 -49 -3 -1 -46 -6 -96 -9 l-90 -7 4 36 c3 27 0 40 -14 49 -9 7
-19 24 -21 36 -3 23 -3 23 20 -4 21 -24 25 -25 37 -12 7 10 8 16 2 16 -6 0
-12 -5 -14 -12 -3 -7 -7 -6 -11 5 -4 11 -1 17 8 17 16 0 16 2 18 48 1 43 -10
62 -37 62 -23 0 -25 4 -23 40 1 40 1 40 14 15 16 -30 23 -31 46 -4 12 14 25
18 40 14 16 -4 18 -4 7 4 -19 12 -70 3 -70 -13 0 -6 -4 -5 -9 3 -13 20 -2 48
11 29 7 -10 8 -8 7 7 -3 37 1 42 31 37 16 -2 45 -1 64 2 28 5 34 10 29 24 -3
9 -12 22 -20 29 -8 6 -12 16 -8 22 3 6 1 11 -4 11 -6 0 -11 -18 -11 -40 0 -33
-3 -40 -20 -40 -13 0 -20 7 -20 20 0 11 -6 20 -12 21 -10 0 -10 2 -1 6 9 3 11
14 6 31 -6 24 -5 26 10 13 15 -12 17 -11 17 5 0 16 2 17 10 4 7 -11 12 -12 18
-4z m-108 -30 c0 -2 -6 -9 -14 -15 -11 -9 -16 -9 -22 0 -4 7 -3 9 4 5 6 -3 13
-2 17 4 6 10 15 14 15 6z m-100 -51 c0 -16 -6 -25 -15 -25 -9 0 -15 9 -15 25
0 16 6 25 15 25 9 0 15 -9 15 -25z m130 8 c0 -3 -6 -3 -14 0 -7 3 -19 0 -25
-6 -8 -8 -11 -8 -11 0 0 6 6 13 13 16 13 4 37 -2 37 -10z m3004 1 c9 -3 16
-11 16 -16 0 -7 -5 -6 -13 1 -8 6 -17 8 -20 4 -4 -3 -7 -1 -7 5 0 14 2 14 24
6z m7 -38 c5 3 9 -2 9 -10 0 -13 -3 -14 -19 -4 -11 7 -17 17 -14 22 4 6 8 5
11 -2 2 -7 8 -10 13 -6z m-3051 -20 c-7 -7 -13 -7 -20 0 -6 6 -3 10 10 10 13
0 16 -4 10 -10z m-95 -26 c-3 -5 -12 -10 -18 -10 -7 0 -6 4 3 10 19 12 23 12
15 0z m-499 -62 c4 -6 9 -27 11 -47 2 -28 1 -33 -8 -21 -8 12 -10 9 -6 -12 6
-37 -4 -35 -28 5 -33 55 -36 75 -11 80 11 2 24 5 28 6 4 0 10 -4 14 -11z m764
8 c0 -3 -4 -8 -10 -11 -5 -3 -10 -1 -10 4 0 6 5 11 10 11 6 0 10 -2 10 -4z
m-268 -48 c-7 -7 -10 -5 -7 8 5 29 6 30 12 16 3 -8 1 -18 -5 -24z m235 0 c-3
-8 -6 -5 -6 6 -1 11 2 17 5 13 3 -3 4 -12 1 -19z m-117 2 c0 -5 -4 -10 -10
-10 -5 0 -10 5 -10 10 0 6 5 10 10 10 6 0 10 -4 10 -10z m3050 -25 c10 -12 10
-15 -4 -15 -9 0 -16 7 -16 15 0 8 2 15 4 15 2 0 9 -7 16 -15z m-3050 -16 c0
-6 -4 -7 -10 -4 -5 3 -10 11 -10 16 0 6 5 7 10 4 6 -3 10 -11 10 -16z m-107
-14 c-3 -9 -8 -14 -10 -11 -3 3 -2 9 2 15 9 16 15 13 8 -4z m111 -14 c3 -5 -1
-11 -9 -15 -9 -3 -15 0 -15 9 0 16 16 20 24 6z m-106 -58 c1 -27 1 -27 -13 -9
-18 24 -19 36 -2 36 7 0 14 -12 15 -27z m69 -50 c-3 -10 -5 -4 -5 12 0 17 2
24 5 18 2 -7 2 -21 0 -30z m-57 -17 c0 -2 -7 -6 -15 -10 -8 -3 -15 -1 -15 4 0
6 7 10 15 10 8 0 15 -2 15 -4z m-30 -86 c0 -5 -5 -10 -11 -10 -5 0 -7 5 -4 10
3 6 8 10 11 10 2 0 4 -4 4 -10z m3277 -22 c10 -18 11 -68 0 -61 -5 3 -6 11 -3
19 3 7 1 16 -4 19 -4 3 -11 -1 -13 -7 -3 -7 -6 -1 -6 15 -1 28 12 36 26 15z
m-30 -70 c-3 -8 -6 -5 -6 6 -1 11 2 17 5 13 3 -3 4 -12 1 -19z m-3996 -9 c19
-7 44 -21 56 -32 13 -12 30 -17 43 -14 32 8 31 -7 -1 -25 -17 -10 -29 -13 -29
-6 0 6 -11 8 -25 6 -13 -3 -22 -1 -19 3 3 5 -4 9 -15 9 -12 0 -21 5 -21 10 0
6 5 10 11 10 5 0 8 4 5 8 -8 14 -299 -1 -476 -24 -41 -6 -44 -5 -30 10 15 15
153 31 415 49 28 2 50 4 51 5 1 1 16 -3 35 -9z m399 -19 c0 -9 -14 -13 -71
-24 -8 -2 -24 3 -35 12 -13 10 -14 13 -3 9 9 -3 21 -2 28 2 18 11 81 12 81 1z
m3600 -10 c0 -5 -4 -10 -10 -10 -5 0 -10 5 -10 10 0 6 5 10 10 10 6 0 10 -4
10 -10z m-90 -48 c0 -5 -8 -42 -19 -83 -10 -41 -24 -106 -31 -146 -6 -39 -18
-80 -25 -90 -12 -15 -12 -12 -4 27 6 25 17 77 24 115 8 39 19 88 25 110 7 22
12 48 13 58 1 17 17 25 17 9z m-3576 -23 c-23 -26 -74 -63 -74 -54 0 9 74 75
84 75 5 0 1 -9 -10 -21z m636 -43 c0 -30 -8 -33 -124 -42 -94 -7 -96 -6 -96
15 0 11 3 21 8 22 136 17 208 27 210 28 1 0 2 -10 2 -23z m40 -35 c0 -35 -3
-39 -31 -45 -17 -3 -51 -6 -74 -6 -35 0 -46 -5 -60 -26 -20 -30 -15 -47 19
-69 19 -13 29 -14 45 -5 12 6 21 18 21 26 0 9 6 14 13 11 6 -2 11 -10 10 -16
-2 -6 4 -11 12 -11 8 0 15 7 15 15 0 8 5 15 11 15 6 0 9 -7 5 -15 -3 -9 0 -15
9 -15 11 0 15 -11 14 -42 -1 -24 -3 -35 -6 -25 -5 21 -12 22 -27 3 -7 -10 -46
-19 -110 -26 -111 -12 -128 -6 -106 34 9 18 11 45 6 96 -3 38 -2 70 2 70 16 0
177 21 201 26 17 4 22 10 18 24 -3 11 -1 20 4 20 5 0 9 -17 9 -39z m436 9 c0
-11 -4 -20 -8 -20 -4 0 -8 9 -8 20 0 11 4 20 8 20 4 0 8 -9 8 -20z m-1409 -32
c-3 -8 -6 -5 -6 6 -1 11 2 17 5 13 3 -3 4 -12 1 -19z m-1638 3 c12 -7 19 -76
9 -86 -2 -2 -14 -2 -26 2 -18 4 -21 10 -16 27 4 11 11 23 15 24 16 6 10 30 -8
35 -13 3 -14 5 -3 6 8 0 21 -3 29 -8z m2595 -52 c-3 -5 -10 -7 -15 -3 -5 3 -7
10 -3 15 3 5 10 7 15 3 5 -3 7 -10 3 -15z m-44 1 c0 -5 -4 -10 -10 -10 -5 0
-10 5 -10 10 0 6 5 10 10 10 6 0 10 -4 10 -10z m-43 -47 c-15 -16 -18 -16 -33
-2 -14 15 -14 18 2 33 15 16 18 16 33 2 14 -15 14 -18 -2 -33z m3033 21 c0 -8
-4 -12 -10 -9 -5 3 -10 10 -10 16 0 5 5 9 10 9 6 0 10 -7 10 -16z m-4175 -4
c3 -5 1 -10 -4 -10 -6 0 -11 5 -11 10 0 6 2 10 4 10 3 0 8 -4 11 -10z m4215
-31 c0 -6 -4 -7 -10 -4 -5 3 -10 11 -10 16 0 6 5 7 10 4 6 -3 10 -11 10 -16z
m50 -14 c0 -5 -5 -3 -10 5 -5 8 -10 20 -10 25 0 6 5 3 10 -5 5 -8 10 -19 10
-25z m-4250 0 c0 -16 -27 -32 -37 -21 -7 7 16 36 28 36 5 0 9 -7 9 -15z m4150
0 c0 -8 -4 -15 -10 -15 -5 0 -10 7 -10 15 0 8 5 15 10 15 6 0 10 -7 10 -15z
m35 -33 c-8 -8 -25 10 -25 26 0 13 2 13 14 -4 8 -10 13 -21 11 -22z m44 -6 c1
-5 -8 -1 -19 9 -16 14 -17 20 -8 26 12 8 25 -10 27 -35z m-2449 20 c0 -2 -7
-7 -16 -10 -8 -3 -12 -2 -9 4 6 10 25 14 25 6z m2363 -21 c4 -8 2 -17 -3 -20
-6 -4 -10 3 -10 14 0 25 6 27 13 6z m-4143 -12 c0 -7 -9 -13 -20 -13 -11 0
-20 6 -20 14 0 9 9 14 20 13 11 -1 20 -7 20 -14z m220 -17 c0 -35 -13 -55 -24
-37 -4 5 -2 12 2 15 5 3 7 17 4 31 -2 15 0 25 7 25 6 0 11 -15 11 -34z m3920
-15 c0 -6 -4 -13 -10 -16 -5 -3 -10 1 -10 9 0 9 5 16 10 16 6 0 10 -4 10 -9z
m41 -8 c4 -22 6 -53 3 -51 -1 2 -3 8 -4 13 -1 6 -6 18 -11 28 -6 11 -6 17 1
17 5 0 11 -3 11 -7z m-5471 -49 c0 -13 -3 -24 -7 -24 -5 0 -8 13 -8 29 0 16 3
27 8 24 4 -2 7 -15 7 -29z m-30 -4 c0 -11 -4 -20 -8 -20 -4 0 -8 9 -9 20 -1
11 2 20 8 20 5 0 9 -9 9 -20z m1554 5 c-22 -17 -34 -19 -34 -6 0 5 8 12 18 14
32 9 36 7 16 -8z m4036 -23 c0 -4 -9 -8 -20 -8 -11 0 -20 4 -20 8 0 4 9 8 20
8 11 0 20 -4 20 -8z m-2003 -24 c-3 -8 -6 -5 -6 6 -1 11 2 17 5 13 3 -3 4 -12
1 -19z m1823 7 c0 -8 -4 -15 -10 -15 -5 0 -7 7 -4 15 4 8 8 15 10 15 2 0 4 -7
4 -15z m-1843 -31 c-3 -3 -12 -4 -19 -1 -8 3 -5 6 6 6 11 1 17 -2 13 -5z m-8
-36 c-5 -10 -12 -18 -15 -18 -3 0 -2 5 1 10 3 6 -1 10 -9 10 -9 0 -16 4 -16 9
0 5 11 8 24 7 20 -1 22 -4 15 -18z m51 2 c0 -5 -5 -10 -11 -10 -5 0 -8 -4 -4
-9 3 -5 1 -12 -5 -16 -14 -9 -1 -27 13 -19 8 5 8 3 0 -7 -15 -15 -17 -33 -4
-24 14 8 29 -54 24 -95 -3 -26 -2 -31 6 -20 5 8 7 18 4 24 -3 5 -1 6 5 2 17
-10 15 -46 -2 -46 -19 0 -29 -17 -20 -31 5 -8 9 -7 14 1 11 18 44 4 36 -15 -3
-8 1 -18 8 -22 7 -5 15 -15 19 -24 4 -13 -1 -18 -23 -21 -29 -4 -65 14 -52 27
4 4 -3 5 -15 1 -60 -16 -68 -17 -53 -7 12 8 11 13 -9 30 -13 11 -28 18 -34 14
-6 -4 -5 -10 4 -17 23 -18 20 -34 -6 -31 -14 1 -25 -2 -25 -7 0 -5 -5 -6 -10
-3 -17 10 0 26 21 20 23 -8 26 10 3 19 -9 4 -24 0 -33 -7 -13 -12 -21 -12 -46
-1 -16 7 -24 13 -17 14 6 0 12 7 12 15 0 8 4 15 9 15 5 0 8 -7 7 -16 0 -9 5
-19 12 -21 9 -4 11 6 7 35 -5 41 9 58 45 53 12 -1 12 0 1 7 -9 7 -10 12 -2 16
6 4 11 22 11 41 0 19 5 37 11 41 8 4 9 -1 4 -16 -6 -19 -5 -21 6 -10 15 14 22
63 8 54 -5 -3 -9 0 -9 5 0 6 11 11 25 11 14 0 24 3 23 8 -3 10 25 52 34 52 5
0 8 -4 8 -10z m-1289 -13 c9 -7 14 -18 11 -26 -3 -10 0 -12 11 -8 11 4 14 2
11 -8 -7 -16 -34 -28 -34 -15 0 6 -4 10 -10 10 -5 0 -7 -6 -4 -14 3 -8 1 -17
-5 -20 -6 -4 -8 -20 -4 -38 4 -22 3 -29 -5 -24 -7 4 -12 1 -12 -6 0 -19 18
-43 26 -35 4 4 13 -1 20 -11 9 -13 10 -20 1 -31 -10 -12 -9 -12 12 -1 20 10
23 10 18 -2 -7 -19 31 -17 45 3 7 10 8 8 4 -11 -3 -14 -6 -30 -6 -36 0 -17
-38 -24 -50 -9 -17 20 -95 16 -109 -7 -9 -15 -8 -20 4 -24 24 -9 18 -23 -7
-17 -13 3 -20 3 -16 -1 3 -4 32 -9 65 -11 32 -2 64 -4 71 -4 7 -1 11 -5 8 -10
-3 -5 2 -12 11 -15 15 -6 15 -8 3 -16 -10 -6 -11 -10 -3 -10 7 0 10 -7 7 -15
-4 -8 -1 -15 5 -15 6 0 -3 -13 -21 -30 -17 -16 -27 -30 -23 -30 5 0 6 -2 3 -5
-10 -11 -38 8 -38 25 0 14 6 17 23 13 18 -4 19 -3 7 6 -8 6 -28 10 -45 10 -16
0 -24 -3 -17 -6 6 -2 12 -14 12 -24 0 -11 -4 -17 -10 -14 -5 3 -10 2 -10 -3 0
-5 -9 -19 -20 -32 -12 -13 -18 -30 -15 -38 3 -7 5 -20 5 -28 0 -8 6 -13 13
-12 7 2 11 -6 10 -20 -2 -16 1 -21 10 -16 6 4 9 4 5 -1 -4 -4 -3 -16 3 -26 5
-11 6 -19 1 -19 -23 0 -66 125 -52 151 7 12 6 20 -2 25 -6 4 -8 3 -4 -4 3 -6
2 -13 -3 -16 -38 -24 -71 388 -37 468 8 18 24 41 37 50 27 19 77 21 100 3z
m2139 -19 c0 22 103 15 165 -13 111 -49 235 -214 220 -293 -20 -109 -126 -364
-166 -397 -16 -14 -20 -15 -10 -3 7 9 10 22 7 27 -4 5 0 14 8 18 9 5 16 23 18
41 1 17 5 32 8 32 3 0 5 16 5 35 0 19 -3 35 -7 35 -5 0 -8 -7 -8 -15 0 -8 -7
-15 -15 -15 -8 0 -15 1 -15 3 0 1 7 23 15 50 8 26 11 47 8 47 -3 0 2 9 11 19
10 11 15 25 10 32 -4 8 -3 10 4 5 7 -4 12 -1 12 8 0 9 4 16 9 16 16 0 22 32 9
48 -11 13 -11 14 1 7 12 -7 13 -1 7 31 -4 21 -8 44 -8 51 -1 7 -6 9 -11 6 -6
-4 -8 0 -4 10 3 8 -2 24 -11 35 -23 26 -119 75 -131 67 -6 -3 -21 1 -33 9 -27
18 -125 27 -151 14 -11 -6 -22 -5 -31 4 -10 11 -10 18 4 43 20 37 61 60 72 42
6 -9 8 -9 8 1z m1243 -11 c3 -8 -1 -14 -8 -14 -7 0 -11 6 -8 14 3 7 6 13 8 13
2 0 5 -6 8 -13z m-2906 -19 c7 17 26 15 20 -2 -4 -9 -1 -13 6 -10 7 2 28 -11
47 -29 31 -29 47 -36 65 -27 3 1 23 3 44 4 37 1 39 0 24 -16 -9 -10 -24 -18
-35 -18 -22 0 -24 -18 -3 -26 8 -4 15 -14 15 -24 0 -10 27 -47 60 -82 33 -34
63 -71 66 -80 3 -10 10 -18 15 -18 14 0 11 17 -6 33 -17 18 -7 31 12 16 16
-14 17 3 1 19 -7 7 -8 12 -4 12 5 0 19 -11 32 -25 25 -27 45 -35 24 -10 -7 9
-10 19 -6 22 4 4 11 1 16 -7 7 -11 10 -12 10 -2 0 7 4 10 10 7 6 -4 4 -17 -5
-35 -19 -36 -19 -40 0 -40 9 0 16 10 16 28 1 22 2 23 6 5 2 -12 -1 -31 -7 -42
-12 -23 -1 -28 17 -10 6 6 9 18 6 26 -3 9 5 5 18 -8 21 -21 36 -64 18 -53 -10
6 -22 -33 -14 -46 3 -6 -1 -7 -10 -4 -10 4 -13 13 -10 24 3 10 1 21 -5 25 -5
3 -10 -1 -10 -9 0 -9 -4 -16 -10 -16 -5 0 -10 -7 -10 -15 0 -8 -6 -12 -13 -9
-8 3 -18 -6 -25 -21 -6 -14 -16 -26 -22 -26 -5 -1 -15 -2 -20 -3 -6 0 -15 -7
-19 -15 -5 -7 -14 -10 -20 -6 -13 7 -41 -11 -41 -27 0 -6 7 -8 14 -5 10 4 13
1 9 -9 -7 -19 -19 -18 -36 6 -8 11 -17 17 -20 13 -13 -12 -7 -20 28 -39 27
-14 35 -25 35 -46 0 -16 -4 -28 -10 -28 -5 0 -10 13 -10 29 0 19 -6 30 -18 33
-12 3 -19 0 -19 -9 0 -8 6 -12 14 -9 19 8 16 -27 -4 -44 -16 -14 -20 -13 -35
2 -9 9 -14 19 -10 22 3 3 -2 6 -11 6 -21 0 -91 137 -128 250 -15 47 -28 74
-28 61 -1 -13 -4 -21 -8 -18 -3 4 -14 0 -23 -8 -25 -22 -60 -8 -60 24 0 31 16
51 42 51 10 0 28 6 41 13 12 6 23 12 24 12 1 0 7 38 12 84 7 55 7 88 1 96 -5
7 -9 14 -7 16 1 3 -9 -6 -21 -20 -19 -20 -25 -22 -33 -10 -7 11 -9 11 -9 -3 0
-9 -8 -22 -17 -27 -16 -9 -15 -10 6 -11 19 0 21 -3 12 -14 -8 -10 -9 -16 -1
-21 5 -3 10 -14 9 -23 0 -11 -3 -12 -6 -4 -2 6 -9 12 -14 12 -6 0 -8 -4 -5 -9
3 -5 -1 -14 -8 -21 -8 -6 -13 -20 -11 -31 2 -10 -1 -19 -6 -19 -5 0 -9 -6 -8
-12 2 -22 -13 -58 -22 -52 -5 3 -6 -3 -2 -13 6 -16 5 -16 -10 -4 -9 7 -14 18
-11 25 3 6 0 4 -8 -4 -8 -9 -27 -14 -50 -13 -27 1 -38 -2 -38 -11 0 -9 7 -12
20 -9 11 3 20 0 20 -6 0 -12 -55 -14 -80 -3 -14 6 -16 14 -11 40 1 4 5 1 10
-7 5 -7 14 -10 21 -6 8 5 5 11 -11 19 -27 13 -56 120 -39 141 8 10 5 17 -11
28 l-22 16 34 20 c19 12 50 21 69 21 36 0 100 -32 100 -49 0 -17 -20 -23 -35
-11 -10 8 -15 9 -15 2 0 -6 5 -14 11 -17 6 -4 8 -13 5 -21 -8 -22 8 -17 33 10
13 14 20 29 17 35 -4 5 3 12 14 16 11 3 19 9 19 13 -4 22 3 33 15 29 10 -4 13
-1 9 9 -3 7 0 14 6 14 7 0 9 10 5 28 -4 22 -3 24 6 12 9 -11 13 -12 17 -2z
m-2822 -28 c16 0 29 -35 20 -50 -11 -18 -25 -10 -25 14 0 14 -4 28 -10 31 -5
3 -10 12 -9 18 0 9 2 9 6 0 2 -7 11 -13 18 -13z m3101 -6 c1 -17 -2 -24 -11
-20 -7 2 -18 -1 -24 -7 -8 -8 -11 -7 -11 5 0 8 10 23 23 31 12 9 22 16 22 16
0 1 1 -11 1 -25z m414 -24 c0 -5 -2 -10 -4 -10 -3 0 -8 5 -11 10 -3 6 -1 10 4
10 6 0 11 -4 11 -10z m-327 -20 c-4 -4 -19 -11 -32 -15 -17 -5 -22 -4 -18 6 2
8 10 13 16 12 6 -2 11 1 11 7 0 5 7 7 16 3 8 -3 12 -9 7 -13z m294 -42 c-3 -8
-6 -5 -6 6 -1 11 2 17 5 13 3 -3 4 -12 1 -19z m1125 1 c18 -12 25 -19 16 -15
-10 3 -18 1 -18 -4 0 -6 4 -10 10 -10 5 0 12 -11 16 -25 3 -14 10 -25 14 -25
8 0 23 -38 21 -52 -1 -5 6 -8 14 -8 18 0 19 -14 5 -41 -8 -14 -7 -19 1 -19 8
0 8 -5 -2 -16 -7 -9 -13 -48 -15 -99 -2 -79 -1 -84 20 -89 24 -6 32 -36 9 -36
-7 0 -13 -6 -13 -14 0 -7 -7 -19 -15 -26 -9 -7 -14 -15 -11 -17 5 -5 -120
-133 -130 -133 -4 0 -12 -7 -19 -16 -7 -11 -29 -17 -59 -18 -28 -2 -51 -8 -56
-16 -12 -20 -85 6 -115 41 -12 15 -25 26 -28 23 -2 -3 -3 9 -1 26 4 34 28 65
44 55 6 -4 10 8 10 29 0 21 -5 36 -12 36 -8 0 -9 3 -2 10 7 7 22 6 47 -5 20
-8 39 -15 42 -15 3 0 25 18 49 40 l43 40 43 -15 c56 -20 65 -19 90 8 19 20 21
31 18 102 -4 62 -12 96 -36 152 -30 66 -37 110 -25 156 5 21 6 21 45 -4z
m-1164 -34 c-2 -5 -8 -10 -15 -11 -6 -1 -9 4 -6 12 6 16 27 15 21 -1z m-48 -5
c0 -5 -4 -10 -10 -10 -5 0 -10 5 -10 10 0 6 5 10 10 10 6 0 10 -4 10 -10z
m-296 -60 c5 0 3 7 -4 15 -7 8 -9 15 -4 15 16 0 44 -59 32 -66 -11 -7 -87 72
-87 91 0 6 12 -5 27 -23 15 -18 31 -32 36 -32z m1643 38 c-3 -8 -6 -5 -6 6 -1
11 2 17 5 13 3 -3 4 -12 1 -19z m-1402 -8 c13 -6 15 -9 5 -9 -8 0 -22 4 -30 9
-18 12 -2 12 25 0z m2153 -21 c19 -30 8 -34 -12 -4 -9 14 -13 25 -9 25 5 0 14
-9 21 -21z m-2188 1 c0 -5 -2 -10 -4 -10 -3 0 -8 5 -11 10 -3 6 -1 10 4 10 6
0 11 -4 11 -10z m420 0 c0 -5 -5 -10 -11 -10 -5 0 -7 5 -4 10 3 6 8 10 11 10
2 0 4 -4 4 -10z m-345 -10 c3 -5 -1 -10 -9 -10 -9 0 -16 5 -16 10 0 6 4 10 9
10 6 0 13 -4 16 -10z m375 -16 c0 -9 5 -12 12 -8 7 5 8 3 3 -6 -5 -8 -1 -18
10 -27 15 -10 16 -13 4 -13 -9 0 -22 11 -29 25 -7 14 -17 25 -22 25 -5 0 -6 5
-3 10 9 15 25 12 25 -6z m1668 -9 c-3 -3 -9 2 -12 12 -6 14 -5 15 5 6 7 -7 10
-15 7 -18z m-1382 -7 c5 -7 3 -8 -6 -3 -10 6 -12 1 -8 -18 3 -15 2 -24 -2 -22
-4 3 -10 16 -12 30 -5 26 14 36 28 13z m1508 -3 c-7 -17 -34 -21 -34 -4 0 5 4
8 9 4 5 -3 12 -1 16 5 9 15 15 12 9 -5z m-1920 -20 c8 -21 -20 -31 -40 -15
-12 11 -12 15 -2 21 20 13 35 11 42 -6z m-274 -6 c0 -8 5 -8 15 1 10 9 15 9
15 1 0 -6 -5 -11 -11 -11 -5 0 -8 -4 -4 -9 3 -5 1 -12 -4 -15 -5 -3 -11 4 -14
15 -3 12 -10 18 -16 14 -6 -3 -19 -1 -28 4 -15 9 -13 10 15 11 17 0 32 -5 32
-11z m500 -4 c0 -8 -2 -15 -4 -15 -2 0 -13 -3 -23 -6 -17 -5 -17 -5 0 6 9 6
15 15 12 21 -4 5 -1 9 4 9 6 0 11 -7 11 -15z m1725 5 c3 -5 1 -10 -4 -10 -6 0
-11 5 -11 10 0 6 2 10 4 10 3 0 8 -4 11 -10z m-2150 -18 c-3 -3 -11 0 -18 7
-9 10 -8 11 6 5 10 -3 15 -9 12 -12z m35 -8 c0 -8 -4 -12 -10 -9 -5 3 -10 13
-10 21 0 8 5 12 10 9 6 -3 10 -13 10 -21z m230 2 c-2 -14 44 -33 61 -25 8 4
22 3 30 -2 11 -7 11 -9 0 -9 -7 0 -11 -6 -8 -14 9 -22 -36 -13 -64 12 -12 12
-30 22 -38 23 -11 0 -12 2 -3 6 6 2 9 9 6 15 -4 6 -1 9 5 7 7 -3 12 -8 11 -13z
m270 10 c0 -3 -4 -8 -10 -11 -5 -3 -10 -1 -10 4 0 6 5 11 10 11 6 0 10 -2 10
-4z m37 -28 c-3 -7 -5 -2 -5 12 0 14 2 19 5 13 2 -7 2 -19 0 -25z m1458 22 c3
-5 1 -10 -4 -10 -6 0 -11 5 -11 10 0 6 2 10 4 10 3 0 8 -4 11 -10z m91 -7 c15
-20 18 -33 7 -33 -5 0 -13 11 -20 25 -13 29 -6 33 13 8z m-2239 1 c-3 -3 -12
-4 -19 -1 -8 3 -5 6 6 6 11 1 17 -2 13 -5z m1061 -9 c8 -16 -3 -100 -19 -142
-13 -34 -42 -28 -63 12 -18 33 -36 46 -36 26 0 -15 -38 -20 -44 -5 -3 8 -1 14
4 14 16 0 16 35 0 47 -13 11 -13 14 0 22 8 5 18 7 22 4 5 -2 19 2 32 11 13 8
33 12 44 10 11 -3 23 -1 26 5 10 15 24 14 34 -4z m1222 5 c0 -5 -5 -10 -11
-10 -5 0 -7 5 -4 10 3 6 8 10 11 10 2 0 4 -4 4 -10z m-2242 -31 c3 -12 2 -12
-6 0 -8 11 -10 11 -14 0 -3 -8 -9 -11 -13 -7 -10 9 4 30 18 25 6 -2 12 -10 15
-18z m786 -4 c-4 -8 1 -17 10 -21 9 -3 16 -12 16 -20 0 -23 -14 -16 -27 13
-16 32 -16 43 -3 43 5 0 7 -7 4 -15z m-744 -9 c0 -11 -19 -15 -25 -6 -3 5 1
10 9 10 9 0 16 -2 16 -4z m635 -16 c3 -5 1 -10 -4 -10 -6 0 -11 5 -11 10 0 6
2 10 4 10 3 0 8 -4 11 -10z m1565 -15 c14 -19 14 -19 -2 -6 -10 7 -18 18 -18
24 0 6 1 8 3 6 1 -2 9 -13 17 -24z m-2240 5 c0 -5 -2 -10 -4 -10 -3 0 -8 5
-11 10 -3 6 -1 10 4 10 6 0 11 -4 11 -10z m760 -26 c0 -13 5 -24 10 -24 6 0
10 6 10 13 0 8 4 7 10 -3 14 -22 12 -40 -6 -40 -21 0 -47 -27 -34 -35 5 -3 10
-1 10 4 0 6 4 11 10 11 5 0 13 -18 16 -40 4 -22 10 -37 14 -35 5 3 6 15 3 26
-4 16 -2 20 8 17 9 -3 13 -16 11 -34 -2 -18 3 -33 14 -41 10 -7 14 -16 10 -20
-4 -4 -16 3 -27 17 -16 21 -20 23 -29 10 -8 -13 -10 -13 -10 1 0 19 -41 49
-65 49 -9 0 -14 4 -10 10 3 5 -2 18 -11 29 -13 14 -25 18 -46 14 -16 -3 -28
-1 -28 5 0 15 28 34 40 27 19 -12 40 15 33 43 -6 25 -6 25 14 6 23 -22 37 -54
24 -54 -5 0 -11 6 -13 13 -3 6 -5 -3 -5 -20 0 -18 3 -33 6 -33 14 0 29 54 24
87 -4 26 -3 34 5 29 7 -4 12 -18 12 -32z m-80 -8 c0 -3 -4 -8 -10 -11 -5 -3
-10 -1 -10 4 0 6 5 11 10 11 6 0 10 -2 10 -4z m1590 -6 c0 -5 -2 -10 -4 -10
-3 0 -8 5 -11 10 -3 6 -1 10 4 10 6 0 11 -4 11 -10z m-2397 -51 c-6 -6 -9 -18
-6 -25 3 -8 0 -14 -6 -14 -6 0 -11 4 -11 9 0 19 12 41 23 41 8 0 8 -3 0 -11z
m28 -12 c-10 -9 -11 -8 -5 6 3 10 9 15 12 12 3 -3 0 -11 -7 -18z m919 3 c0 -5
-4 -10 -10 -10 -5 0 -10 5 -10 10 0 6 5 10 10 10 6 0 10 -4 10 -10z m-190 -40
c0 -5 -2 -10 -4 -10 -3 0 -8 5 -11 10 -3 6 -1 10 4 10 6 0 11 -4 11 -10z
m-796 -16 c5 -14 4 -15 -8 -5 -7 6 -22 9 -32 5 -16 -5 -16 -4 -4 5 21 15 37
13 44 -5z m1086 6 c-18 -12 -30 -13 -30 -2 0 4 10 9 22 9 18 2 20 0 8 -7z
m-230 -20 c0 -5 -4 -10 -10 -10 -5 0 -10 5 -10 10 0 6 5 10 10 10 6 0 10 -4
10 -10z m1680 0 c0 -5 -2 -10 -4 -10 -3 0 -8 5 -11 10 -3 6 -1 10 4 10 6 0 11
-4 11 -10z m-5760 -20 c0 -5 -4 -10 -10 -10 -5 0 -10 5 -10 10 0 6 5 10 10 10
6 0 10 -4 10 -10z m4050 -11 c0 -6 -4 -7 -10 -4 -5 3 -10 11 -10 16 0 6 5 7
10 4 6 -3 10 -11 10 -16z m87 5 c-3 -3 -12 -4 -19 -1 -8 3 -5 6 6 6 11 1 17
-2 13 -5z m160 -32 c2 -19 1 -21 -16 -10 -10 6 -17 18 -14 25 8 20 26 11 30
-15z m1517 2 c5 -14 4 -15 -9 -4 -17 14 -19 20 -6 20 5 0 12 -7 15 -16z
m-2713 -87 c-10 -9 -11 -8 -5 6 3 10 9 15 12 12 3 -3 0 -11 -7 -18z m-716 -77
c3 -5 1 -10 -4 -10 -6 0 -11 5 -11 10 0 6 2 10 4 10 3 0 8 -4 11 -10z m-880
-264 c22 -2 47 -6 55 -10 16 -6 113 -17 190 -22 75 -4 109 -21 79 -39 -5 -4
-14 -18 -19 -31 -5 -13 -15 -23 -22 -22 -7 2 -12 -3 -11 -9 3 -12 -4 -15 -52
-17 -11 -1 -19 -7 -18 -13 3 -14 -20 -21 -85 -26 -24 -2 -47 -9 -51 -16 -5 -8
-18 -10 -34 -6 -20 5 -28 3 -33 -9 -15 -40 -145 -62 -181 -31 -10 8 -36 27
-59 44 -40 28 -41 30 -41 92 -1 68 8 82 67 103 33 11 130 23 155 19 11 -2 38
-5 60 -7z m-350 -76 c-3 -5 -13 -10 -21 -10 -8 0 -14 5 -14 10 0 6 9 10 21 10
11 0 17 -4 14 -10z m1924 -163 c15 -4 15 -5 0 -6 -19 -1 -63 61 -73 104 -4 18
6 6 25 -32 17 -34 39 -64 48 -66z m2296 112 c11 -16 1 -19 -13 -3 -7 8 -8 14
-3 14 5 0 13 -5 16 -11z m36 -9 c6 0 8 4 5 8 -3 5 1 9 9 9 11 0 12 -4 4 -14
-16 -19 -39 -16 -38 5 0 10 3 12 6 5 2 -7 9 -13 14 -13z m-2793 -30 c6 0 9 -7
6 -15 -4 -8 -10 -15 -15 -15 -5 0 -9 7 -9 15 0 8 -4 15 -10 15 -5 0 -10 8 -10
18 1 16 1 16 14 0 7 -10 18 -18 24 -18z m2742 17 c0 -1 -14 -15 -30 -30 -21
-21 -28 -23 -23 -10 7 18 32 42 46 43 4 0 7 -1 7 -3z m-2485 -27 c3 -5 1 -10
-4 -10 -6 0 -11 5 -11 10 0 6 2 10 4 10 3 0 8 -4 11 -10z m90 0 c3 -5 1 -10
-4 -10 -6 0 -11 5 -11 10 0 6 2 10 4 10 3 0 8 -4 11 -10z m-75 -50 c0 -5 -5
-10 -11 -10 -5 0 -7 5 -4 10 3 6 8 10 11 10 2 0 4 -4 4 -10z m-270 -141 c0 -6
-4 -7 -10 -4 -5 3 -10 11 -10 16 0 6 5 7 10 4 6 -3 10 -11 10 -16z m650 -23
c0 -3 -4 -8 -10 -11 -5 -3 -10 -1 -10 4 0 6 5 11 10 11 6 0 10 -2 10 -4z m44
-54 c-7 -29 -24 -55 -31 -48 -2 2 1 23 7 45 12 45 34 47 24 3z m-134 -2 c0 -5
-14 -15 -31 -24 -26 -13 -31 -13 -36 0 -8 22 14 42 42 36 14 -2 25 -8 25 -12z
m-212 -4 c28 3 32 1 32 -20 0 -27 -39 -44 -52 -23 -6 9 -8 9 -8 0 0 -7 -7 -13
-15 -13 -9 0 -15 9 -15 23 0 13 -6 29 -12 36 -11 10 -8 10 12 3 14 -5 40 -8
58 -6z m462 -11 c17 -21 6 -30 -13 -11 -8 8 -17 12 -21 9 -3 -4 -6 -1 -6 5 0
17 25 15 40 -3z m-20 -65 c0 -5 -5 -10 -11 -10 -5 0 -7 5 -4 10 3 6 8 10 11
10 2 0 4 -4 4 -10z m-373 -26 c-9 -9 -28 6 -21 18 4 6 10 6 17 -1 6 -6 8 -13
4 -17z m1713 -18 c0 -3 -4 -8 -10 -11 -5 -3 -10 -1 -10 4 0 6 5 11 10 11 6 0
10 -2 10 -4z m-2143 -116 c-2 -29 -17 -24 -17 6 0 14 4 23 9 19 6 -3 9 -14 8
-25z m83 -89 c0 -4 -11 -6 -25 -3 -14 2 -25 6 -25 8 0 2 11 4 25 4 14 0 25 -4
25 -9z m-63 -7 c-3 -3 -12 -4 -19 -1 -8 3 -5 6 6 6 11 1 17 -2 13 -5z m1574
-191 c-9 -15 -10 -14 -7 7 6 35 7 37 12 23 3 -7 1 -20 -5 -30z"/>
<path d="M2334 5045 c-10 -26 1 -35 13 -10 6 14 7 25 2 25 -5 0 -12 -7 -15
-15z"/>
<path d="M3351 4784 c0 -11 3 -14 6 -6 3 7 2 16 -1 19 -3 4 -6 -2 -5 -13z"/>
<path d="M3310 4626 c0 -34 10 -56 25 -56 8 0 16 -8 18 -17 3 -12 5 -10 6 7 0
14 -6 36 -15 48 -8 12 -12 27 -9 32 3 6 -1 10 -9 10 -10 0 -16 -9 -16 -24z"/>
<path d="M3304 4495 c-18 -27 -13 -55 10 -55 18 0 25 10 36 52 l9 30 -21 -18
c-19 -17 -21 -17 -15 -1 9 25 0 21 -19 -8z"/>
<path d="M3493 4077 c0 -18 2 -24 4 -15 3 10 10 15 19 11 10 -3 12 0 8 10 -11
31 -31 27 -31 -6z"/>
<path d="M3570 4050 c0 -5 5 -10 11 -10 5 0 7 5 4 10 -3 6 -8 10 -11 10 -2 0
-4 -4 -4 -10z"/>
<path d="M3401 3744 c0 -11 3 -14 6 -6 3 7 2 16 -1 19 -3 4 -6 -2 -5 -13z"/>
<path d="M3600 3720 c0 -11 2 -20 5 -20 2 0 9 9 15 20 9 16 8 20 -5 20 -8 0
-15 -9 -15 -20z"/>
<path d="M1975 4740 c-19 -7 -19 -7 2 -18 16 -9 24 -9 29 -1 10 16 -8 28 -31
19z"/>
<path d="M3035 4480 c-3 -6 1 -12 9 -15 9 -3 23 -7 32 -10 12 -4 15 -1 10 11
-3 8 -6 18 -6 20 0 9 -39 4 -45 -6z"/>
<path d="M3145 4340 c3 -5 8 -10 11 -10 2 0 4 5 4 10 0 6 -5 10 -11 10 -5 0
-7 -4 -4 -10z"/>
<path d="M3086 4313 c-6 -14 -5 -15 5 -6 7 7 10 15 7 18 -3 3 -9 -2 -12 -12z"/>
<path d="M3161 4234 c0 -11 3 -14 6 -6 3 7 2 16 -1 19 -3 4 -6 -2 -5 -13z"/>
<path d="M2937 3763 c-12 -11 -8 -23 8 -23 8 0 15 7 15 15 0 16 -12 20 -23 8z"/>
<path d="M4177 3304 c-15 -14 -27 -27 -27 -29 0 -11 49 19 55 33 9 24 1 23
-28 -4z"/>
<path d="M4140 3246 c0 -2 7 -7 16 -10 8 -3 12 -2 9 4 -6 10 -25 14 -25 6z"/>
<path d="M2839 3273 c-12 -16 -12 -17 2 -6 9 7 19 10 22 6 4 -3 7 -1 7 5 0 17
-16 15 -31 -5z"/>
<path d="M2801 3244 c0 -11 3 -14 6 -6 3 7 2 16 -1 19 -3 4 -6 -2 -5 -13z"/>
<path d="M2921 3040 c10 -7 49 -2 49 5 0 2 -14 3 -31 3 -17 -1 -25 -4 -18 -8z"/>
<path d="M3168 3313 c6 -2 9 -10 6 -15 -4 -7 -2 -8 4 -4 18 11 14 26 -5 25
-11 0 -13 -3 -5 -6z"/>
<path d="M3216 3304 c-8 -21 -8 -24 3 -24 5 0 11 9 14 20 6 24 -8 27 -17 4z"/>
<path d="M3136 3292 c-3 -5 1 -9 9 -9 8 0 12 4 9 9 -3 4 -7 8 -9 8 -2 0 -6 -4
-9 -8z"/>
<path d="M3260 3290 c0 -5 5 -10 10 -10 6 0 10 5 10 10 0 6 -4 10 -10 10 -5 0
-10 -4 -10 -10z"/>
<path d="M3320 3290 c0 -5 5 -10 11 -10 5 0 7 5 4 10 -3 6 -8 10 -11 10 -2 0
-4 -4 -4 -10z"/>
<path d="M3164 3247 c-24 -13 -34 -27 -34 -49 0 -19 26 -48 43 -48 7 0 4 5 -5
11 -10 5 -18 19 -18 30 0 11 5 17 10 14 6 -4 8 -10 5 -15 -3 -5 -1 -11 4 -14
19 -12 20 12 1 29 -16 14 -17 20 -8 27 17 10 55 10 62 -1 11 -17 -6 -72 -20
-67 -8 3 -14 1 -14 -4 0 -6 7 -10 16 -10 8 0 12 -4 9 -10 -3 -5 -2 -18 3 -27
8 -13 10 -10 10 18 0 18 5 47 11 62 13 34 10 42 -27 55 -19 7 -35 6 -48 -1z"/>
<path d="M3421 3144 c0 -11 3 -14 6 -6 3 7 2 16 -1 19 -3 4 -6 -2 -5 -13z"/>
<path d="M3697 3044 c-3 -5 1 -15 9 -22 16 -14 18 -5 5 17 -5 7 -11 9 -14 5z"/>
<path d="M3846 3025 c4 -8 10 -12 15 -9 11 6 2 24 -11 24 -5 0 -7 -7 -4 -15z"/>
<path d="M3741 2994 c0 -11 3 -14 6 -6 3 7 2 16 -1 19 -3 4 -6 -2 -5 -13z"/>
<path d="M3645 2910 c-3 -5 -2 -10 4 -10 5 0 13 5 16 10 3 6 2 10 -4 10 -5 0
-13 -4 -16 -10z"/>
<path d="M5194 2826 c-38 -17 -48 -31 -37 -51 7 -11 16 -6 46 25 40 43 39 47
-9 26z"/>
<path d="M5103 2812 c-21 -2 -33 -9 -33 -18 0 -16 37 -19 59 -5 22 14 8 26
-26 23z"/>
<path d="M4887 2747 c-3 -7 5 -12 19 -12 29 0 29 1 5 14 -14 8 -20 7 -24 -2z"/>
<path d="M5028 2738 c-20 -20 -20 -23 -6 -26 19 -4 60 27 52 40 -9 14 -23 9
-46 -14z"/>
<path d="M4945 2670 c3 -5 8 -10 11 -10 2 0 4 5 4 10 0 6 -5 10 -11 10 -5 0
-7 -4 -4 -10z"/>
<path d="M4170 3130 c0 -5 5 -10 10 -10 6 0 10 5 10 10 0 6 -4 10 -10 10 -5 0
-10 -4 -10 -10z"/>
<path d="M4570 2950 c0 -5 5 -10 10 -10 6 0 10 5 10 10 0 6 -4 10 -10 10 -5 0
-10 -4 -10 -10z"/>
<path d="M5326 5619 c3 -5 16 -9 30 -9 13 0 24 -4 24 -9 0 -17 29 -20 42 -3
12 15 11 16 -4 3 -16 -12 -18 -11 -18 3 0 9 -3 16 -7 17 -5 0 -23 2 -40 3 -18
2 -30 0 -27 -5z"/>
<path d="M5500 5606 c0 -2 7 -7 16 -10 8 -3 12 -2 9 4 -6 10 -25 14 -25 6z"/>
<path d="M5540 5600 c0 -5 5 -10 11 -10 5 0 7 5 4 10 -3 6 -8 10 -11 10 -2 0
-4 -4 -4 -10z"/>
<path d="M5574 5591 c-2 -2 -25 -9 -51 -16 -38 -10 -48 -17 -49 -33 -1 -12 3
-19 8 -16 5 3 15 -2 23 -12 11 -16 15 -17 31 -4 16 14 16 13 5 -8 -7 -13 -10
-26 -7 -30 3 -3 6 0 6 6 0 14 54 16 79 3 10 -6 44 -11 77 -12 77 -3 120 -15
137 -39 12 -17 13 -16 14 15 1 18 -4 36 -11 38 -6 3 -40 29 -75 58 -62 51 -67
54 -123 54 -33 0 -61 -2 -64 -4z"/>
<path d="M5410 5551 c0 -6 4 -13 10 -16 6 -3 7 1 4 9 -7 18 -14 21 -14 7z"/>
<path d="M5444 5529 c-3 -6 -15 -9 -25 -6 -24 6 -36 -11 -14 -19 10 -4 25 2
38 15 12 11 18 21 15 21 -4 0 -10 -5 -14 -11z"/>
<path d="M5677 5441 c-17 -6 -17 -8 4 -26 12 -11 19 -14 15 -7 -5 8 -1 19 10
27 15 11 16 14 4 14 -8 0 -23 -4 -33 -8z"/>
<path d="M5550 5409 c0 -6 -5 -7 -12 -3 -8 5 -9 -2 -5 -23 3 -17 1 -35 -6 -42
-8 -8 -8 -14 1 -23 6 -6 15 -8 19 -4 4 4 1 11 -7 16 -12 8 -10 10 10 10 19 0
21 3 12 12 -7 7 -12 17 -12 22 0 6 5 5 12 -2 19 -19 34 -14 47 15 13 28 13 28
-8 9 -12 -11 -24 -16 -28 -13 -3 4 -1 7 5 7 21 0 13 26 -8 27 -11 1 -20 -3
-20 -8z"/>
<path d="M5901 5356 c7 -15 15 -23 17 -16 3 7 -3 19 -13 28 -15 16 -16 15 -4
-12z"/>
<path d="M5515 5219 c-11 -16 -1 -19 13 -3 7 8 8 14 3 14 -5 0 -13 -5 -16 -11z"/>
<path d="M5647 5183 c-4 -3 -7 -11 -7 -17 0 -6 5 -5 12 2 6 6 9 14 7 17 -3 3
-9 2 -12 -2z"/>
<path d="M5515 5150 c-3 -5 -1 -10 4 -10 6 0 11 5 11 10 0 6 -2 10 -4 10 -3 0
-8 -4 -11 -10z"/>
<path d="M6065 4990 c-3 -5 -1 -10 4 -10 6 0 11 5 11 10 0 6 -2 10 -4 10 -3 0
-8 -4 -11 -10z"/>
<path d="M6095 4881 c-3 -5 -1 -12 5 -16 5 -3 10 1 10 9 0 18 -6 21 -15 7z"/>
<path d="M6021 4854 c0 -11 3 -14 6 -6 3 7 2 16 -1 19 -3 4 -6 -2 -5 -13z"/>
<path d="M6110 4810 c0 -5 5 -10 10 -10 6 0 10 5 10 10 0 6 -4 10 -10 10 -5 0
-10 -4 -10 -10z"/>
<path d="M6126 4777 c3 -10 9 -15 12 -12 3 3 0 11 -7 18 -10 9 -11 8 -5 -6z"/>
<path d="M6125 4741 c-3 -5 -1 -12 5 -16 5 -3 10 1 10 9 0 18 -6 21 -15 7z"/>
<path d="M6371 4684 c-1 -16 6 -39 14 -50 19 -25 19 -3 0 46 l-13 35 -1 -31z"/>
<path d="M6137 4663 c8 -52 13 -54 13 -5 0 23 -4 42 -9 42 -6 0 -7 -17 -4 -37z"/>
<path d="M6145 4600 c-3 -5 -1 -10 4 -10 6 0 11 5 11 10 0 6 -2 10 -4 10 -3 0
-8 -4 -11 -10z"/>
<path d="M6140 4561 c0 -6 5 -13 10 -16 6 -3 10 1 10 9 0 9 -4 16 -10 16 -5 0
-10 -4 -10 -9z"/>
<path d="M6148 4500 c2 -16 6 -30 8 -30 2 0 4 14 4 30 0 17 -4 30 -8 30 -5 0
-7 -13 -4 -30z"/>
<path d="M6115 4290 c-3 -5 -1 -10 4 -10 6 0 11 5 11 10 0 6 -2 10 -4 10 -3 0
-8 -4 -11 -10z"/>
<path d="M476 4077 c3 -10 9 -15 12 -12 3 3 0 11 -7 18 -10 9 -11 8 -5 -6z"/>
<path d="M6240 3640 c-13 -8 -12 -10 3 -10 9 0 17 5 17 10 0 12 -1 12 -20 0z"/>
<path d="M6320 3389 c0 -5 5 -7 10 -4 6 3 10 8 10 11 0 2 -4 4 -10 4 -5 0 -10
-5 -10 -11z"/>
<path d="M6250 3230 c0 -5 5 -10 11 -10 5 0 7 5 4 10 -3 6 -8 10 -11 10 -2 0
-4 -4 -4 -10z"/>
<path d="M6167 3223 c-4 -3 -7 -11 -7 -17 0 -6 5 -5 12 2 7 7 17 12 23 12 6 0
6 -3 -1 -8 -6 -4 -14 -17 -18 -29 -6 -18 -4 -20 14 -16 28 7 33 19 20 43 -11
20 -31 26 -43 13z"/>
<path d="M6246 3167 c3 -10 9 -15 12 -12 3 3 0 11 -7 18 -10 9 -11 8 -5 -6z"/>
<path d="M6244 3132 c3 -6 1 -14 -5 -18 -6 -3 -15 0 -20 7 -7 11 -9 10 -9 -3
0 -11 8 -18 19 -18 22 0 35 26 19 36 -6 4 -8 3 -4 -4z"/>
<path d="M6260 3090 c0 -5 5 -10 10 -10 6 0 10 5 10 10 0 6 -4 10 -10 10 -5 0
-10 -4 -10 -10z"/>
<path d="M6355 3070 c-3 -5 1 -10 9 -10 9 0 16 5 16 10 0 6 -4 10 -9 10 -6 0
-13 -4 -16 -10z"/>
<path d="M6280 3051 c-6 -12 -7 -21 -1 -21 10 0 24 30 17 37 -2 3 -9 -5 -16
-16z"/>
<path d="M6385 3040 c-3 -5 -1 -10 4 -10 6 0 11 5 11 10 0 6 -2 10 -4 10 -3 0
-8 -4 -11 -10z"/>
<path d="M6310 3030 c0 -5 5 -10 11 -10 5 0 7 5 4 10 -3 6 -8 10 -11 10 -2 0
-4 -4 -4 -10z"/>
<path d="M6277 3000 c3 -11 9 -20 15 -20 5 0 4 9 -2 20 -6 11 -12 20 -14 20
-2 0 -2 -9 1 -20z"/>
<path d="M6339 2987 c6 -8 8 -17 4 -21 -10 -10 -13 -37 -3 -31 4 3 11 -5 15
-18 6 -19 8 -19 12 -4 2 9 12 17 21 17 16 1 16 2 0 14 -10 7 -18 16 -18 20 0
9 -26 36 -36 36 -3 0 -1 -6 5 -13z"/>
<path d="M6315 2969 c-4 -6 -5 -12 -2 -15 2 -3 7 2 10 11 7 17 1 20 -8 4z"/>
<path d="M6385 2910 c-3 -5 -1 -10 4 -10 6 0 11 5 11 10 0 6 -2 10 -4 10 -3 0
-8 -4 -11 -10z"/>
<path d="M6380 2880 c0 -5 5 -10 11 -10 5 0 7 5 4 10 -3 6 -8 10 -11 10 -2 0
-4 -4 -4 -10z"/>
<path d="M2520 2800 c0 -5 5 -10 10 -10 6 0 10 5 10 10 0 6 -4 10 -10 10 -5 0
-10 -4 -10 -10z"/>
<path d="M2898 2553 c7 -3 16 -2 19 1 4 3 -2 6 -13 5 -11 0 -14 -3 -6 -6z"/>
<path d="M3371 2513 c0 -21 4 -47 8 -58 8 -19 8 -19 19 2 18 34 15 71 -8 83
-18 10 -20 8 -19 -27z"/>
<path d="M2998 2383 c7 -3 16 -2 19 1 4 3 -2 6 -13 5 -11 0 -14 -3 -6 -6z"/>
<path d="M6015 2180 c-3 -5 -1 -10 4 -10 6 0 11 5 11 10 0 6 -2 10 -4 10 -3 0
-8 -4 -11 -10z"/>
<path d="M5786 2171 c-4 -5 3 -7 14 -4 23 6 26 13 6 13 -8 0 -17 -4 -20 -9z"/>
<path d="M6137 2136 c-4 -9 -3 -15 2 -12 15 10 22 -25 9 -43 -11 -15 -10 -15
6 0 16 15 16 19 4 44 -12 23 -16 25 -21 11z"/>
<path d="M6076 2117 c3 -8 11 -14 19 -14 20 0 19 4 -5 17 -15 8 -18 8 -14 -3z"/>
<path d="M436 2091 c-16 -17 -16 -20 -1 -35 21 -20 35 -20 50 1 10 13 9 20 -4
35 -19 23 -24 23 -45 -1z"/>
<path d="M2618 2023 c-28 -3 -36 -8 -31 -19 4 -12 0 -15 -19 -13 -14 2 -33 -2
-42 -10 -9 -7 -16 -10 -16 -7 0 4 -7 0 -17 -9 -11 -12 -28 -16 -55 -13 -39 4
-49 -5 -24 -19 12 -7 12 -11 1 -27 -8 -10 -19 -15 -25 -11 -8 5 -7 11 2 23 10
12 10 14 1 8 -23 -13 -38 6 -18 21 15 10 16 13 3 13 -8 0 -23 -9 -33 -20 -16
-18 -16 -20 -2 -20 21 0 22 -26 3 -33 -8 -3 -29 -1 -48 5 -18 6 -39 13 -46 14
-9 3 -11 12 -7 26 5 20 4 21 -5 6 -6 -10 -21 -17 -33 -17 -18 1 -19 2 -4 6 18
5 20 25 2 24 -62 -5 -105 -16 -105 -26 0 -8 6 -15 13 -18 6 -2 -4 -7 -23 -12
-19 -4 -41 -12 -47 -17 -7 -6 -20 -8 -28 -4 -8 3 -20 -1 -27 -8 -9 -9 -23 -11
-46 -5 -29 6 -35 4 -39 -11 -6 -22 -66 -31 -97 -15 -13 7 -20 7 -22 0 -3 -6
-20 -9 -39 -7 -21 3 -45 -2 -59 -11 -17 -12 -26 -13 -35 -4 -8 8 -11 6 -11 -9
0 -16 7 -21 40 -22 23 -2 51 -7 63 -11 28 -11 58 0 68 25 7 18 8 18 8 0 1 -17
11 -18 202 -12 111 4 205 9 210 12 5 3 9 11 9 17 0 8 16 11 48 10 37 -2 42 0
22 6 -26 9 -12 15 29 11 15 -1 21 2 16 10 -5 8 3 10 26 8 30 -3 34 -6 31 -28
l-4 -25 22 23 c24 25 45 28 54 7 4 -12 23 -14 102 -10 89 5 99 4 120 -16 l23
-21 -2 21 c-1 11 -4 21 -8 21 -3 0 -9 24 -13 54 -5 43 -41 151 -49 144 -1 -1
-19 -3 -39 -5z m-138 -98 c0 -8 -7 -15 -16 -15 -14 0 -14 3 -4 15 7 8 14 15
16 15 2 0 4 -7 4 -15z m-590 -115 c12 -8 9 -10 -12 -10 -15 0 -30 5 -33 10 -8
13 25 13 45 0z m-110 -10 c0 -5 -14 -10 -31 -10 -17 0 -28 4 -24 10 3 6 17 10
31 10 13 0 24 -4 24 -10z"/>
<path d="M3100 2015 c-11 -13 -10 -14 4 -9 9 3 16 10 16 15 0 13 -6 11 -20 -6z"/>
<path d="M2963 1954 c1 -12 10 -27 22 -34 18 -12 19 -11 7 2 -10 13 -10 17 0
21 9 4 7 6 -4 6 -9 1 -18 7 -21 14 -3 6 -5 2 -4 -9z"/>
<path d="M2866 1932 c-3 -6 -3 -12 1 -15 5 -2 2 -2 -5 0 -26 6 -33 -9 -12 -24
14 -10 18 -18 11 -22 -6 -4 -1 -12 12 -20 21 -14 21 -13 7 5 -14 17 -14 18 2
6 10 -8 16 -17 15 -21 -1 -4 10 -22 25 -40 l28 -32 -6 33 c-4 18 -15 42 -25
54 -11 12 -15 24 -10 30 5 5 -1 19 -14 33 -13 13 -25 19 -29 13z m24 -42 c0
-5 -2 -10 -4 -10 -3 0 -8 5 -11 10 -3 6 -1 10 4 10 6 0 11 -4 11 -10z"/>
<path d="M1087 1842 c-10 -10 -17 -23 -17 -29 0 -6 -6 -16 -14 -22 -17 -14 -3
-101 19 -114 8 -4 15 -14 15 -22 0 -8 16 -16 40 -20 35 -6 44 -3 73 22 18 16
49 35 68 43 39 16 51 29 44 49 -3 7 0 20 6 28 15 17 20 13 -79 51 -95 37 -132
40 -155 14z"/>
<path d="M2370 1846 c0 -2 7 -7 16 -10 8 -3 12 -2 9 4 -6 10 -25 14 -25 6z"/>
<path d="M380 1830 c-14 -5 -43 -9 -65 -10 -34 -2 -37 -3 -15 -9 14 -4 51 -6
83 -4 52 3 60 1 64 -17 6 -24 21 -26 29 -5 7 18 25 20 22 3 -2 -7 3 -12 11
-10 9 2 11 -3 7 -13 -5 -13 -1 -15 17 -9 12 4 24 11 25 15 2 5 10 9 18 9 8 0
14 4 14 9 0 4 -12 6 -26 3 -17 -3 -25 -1 -21 5 6 10 76 27 109 26 10 0 15 4
12 9 -3 5 -39 6 -82 2 -93 -9 -109 -9 -147 -2 -16 3 -41 2 -55 -2z"/>
<path d="M690 1823 c0 -10 4 -14 8 -8 4 6 11 13 16 18 5 4 2 7 -7 7 -10 0 -17
-8 -17 -17z"/>
<path d="M743 1825 c4 -8 1 -17 -4 -21 -6 -3 -9 -15 -6 -25 4 -14 -1 -21 -21
-25 -42 -9 -49 -12 -26 -13 11 -1 25 -6 32 -13 9 -9 13 -7 18 5 3 9 14 17 23
17 25 0 33 11 19 27 -18 22 -2 26 26 8 27 -18 30 -15 27 25 0 10 1 11 5 3 3
-7 13 -13 22 -12 11 0 13 2 4 6 -10 4 -10 8 -1 19 10 12 1 14 -56 14 -55 0
-66 -3 -62 -15z"/>
<path d="M2450 1830 c0 -5 5 -10 10 -10 6 0 10 5 10 10 0 6 -4 10 -10 10 -5 0
-10 -4 -10 -10z"/>
<path d="M880 1820 c0 -6 7 -10 15 -10 8 0 15 2 15 4 0 2 -7 6 -15 10 -8 3
-15 1 -15 -4z"/>
<path d="M1521 1818 c0 -10 -9 -18 -19 -18 -17 0 -72 -51 -72 -67 0 -4 5 -1
10 7 8 13 10 12 10 -3 0 -16 5 -17 33 -12 17 4 35 12 39 18 4 8 9 5 14 -6 15
-41 74 -1 74 52 l0 24 -25 -27 c-32 -35 -40 -33 -52 12 -6 20 -11 29 -12 20z"/>
<path d="M2865 1820 c3 -5 8 -10 11 -10 2 0 4 5 4 10 0 6 -5 10 -11 10 -5 0
-7 -4 -4 -10z"/>
<path d="M15 1800 c3 -5 11 -10 16 -10 6 0 7 5 4 10 -3 6 -11 10 -16 10 -6 0
-7 -4 -4 -10z"/>
<path d="M2827 1793 c-5 -7 -5 -18 -1 -25 5 -8 2 -9 -10 -5 -10 4 -15 3 -11
-3 3 -6 13 -10 21 -10 8 0 17 -6 20 -14 8 -20 40 -8 40 15 0 19 -1 19 -13 3
-12 -16 -13 -16 -13 -1 0 9 -4 17 -9 17 -5 0 -11 8 -13 18 -3 12 -6 14 -11 5z"/>
<path d="M2885 1790 c-3 -5 -1 -10 4 -10 6 0 11 5 11 10 0 6 -2 10 -4 10 -3 0
-8 -4 -11 -10z"/>
<path d="M700 1775 c0 -8 5 -15 10 -15 6 0 10 7 10 15 0 8 -4 15 -10 15 -5 0
-10 -7 -10 -15z"/>
<path d="M845 1780 c-3 -5 1 -10 10 -10 9 0 13 5 10 10 -3 6 -8 10 -10 10 -2
0 -7 -4 -10 -10z"/>
<path d="M2905 1769 c-4 -6 -5 -12 -2 -15 2 -3 7 2 10 11 7 17 1 20 -8 4z"/>
<path d="M588 1763 c10 -4 9 -8 -4 -18 -15 -10 -13 -11 14 -7 44 6 51 32 9 31
-18 0 -26 -3 -19 -6z"/>
<path d="M5757 1751 c-2 -10 -1 -24 3 -30 4 -7 7 1 8 18 1 35 -3 40 -11 12z"/>
<path d="M5607 1730 c3 -11 7 -20 9 -20 2 0 4 9 4 20 0 11 -4 20 -9 20 -5 0
-7 -9 -4 -20z"/>
<path d="M5651 1724 c0 -11 3 -14 6 -6 3 7 2 16 -1 19 -3 4 -6 -2 -5 -13z"/>
<path d="M2860 1700 c0 -5 5 -10 10 -10 6 0 10 5 10 10 0 6 -4 10 -10 10 -5 0
-10 -4 -10 -10z"/>
<path d="M5591 1705 c0 -5 3 -16 8 -23 7 -11 9 -10 14 3 4 9 3 14 -2 10 -5 -3
-12 1 -14 7 -3 7 -6 9 -6 3z"/>
<path d="M5516 1673 c5 -5 12 -12 16 -18 4 -6 8 -2 8 8 0 9 -7 17 -17 17 -9 0
-12 -3 -7 -7z"/>
<path d="M3117 1639 c7 -7 15 -10 18 -7 3 3 -2 9 -12 12 -14 6 -15 5 -6 -5z"/>
<path d="M2720 1600 c-13 -8 -12 -10 3 -10 9 0 17 5 17 10 0 12 -1 12 -20 0z"/>
<path d="M2762 1585 c3 -3 28 -11 57 -19 51 -13 51 -13 32 5 -17 16 -105 30
-89 14z"/>
<path d="M2870 1576 c0 -2 8 -10 18 -17 15 -13 16 -12 3 4 -13 16 -21 21 -21
13z"/>
<path d="M2918 1543 c7 -3 16 -2 19 1 4 3 -2 6 -13 5 -11 0 -14 -3 -6 -6z"/>
<path d="M3056 1413 c-6 -14 -5 -15 5 -6 7 7 10 15 7 18 -3 3 -9 -2 -12 -12z"/>
<path d="M3115 1394 c-9 -15 -12 -23 -6 -20 11 7 35 46 28 46 -3 0 -12 -12
-22 -26z"/>
<path d="M3154 1408 c-4 -7 -15 -24 -23 -38 -10 -15 -11 -21 -3 -16 13 7 46
66 38 66 -3 0 -8 -6 -12 -12z"/>
<path d="M3176 1393 c-6 -14 -5 -15 5 -6 7 7 10 15 7 18 -3 3 -9 -2 -12 -12z"/>
<path d="M3166 1318 c-21 -42 -36 -82 -34 -89 3 -8 11 4 18 26 14 45 50 108
57 101 2 -2 -3 -19 -12 -36 -35 -67 -84 -190 -76 -190 4 0 20 28 34 63 23 55
45 106 69 160 4 10 4 16 -1 12 -5 -3 -11 3 -13 12 -2 10 -19 -13 -42 -59z"/>
<path d="M3060 1359 c0 -5 5 -7 10 -4 6 3 10 8 10 11 0 2 -4 4 -10 4 -5 0 -10
-5 -10 -11z"/>
<path d="M3130 1305 c-17 -37 -30 -68 -27 -71 2 -2 19 25 36 62 17 37 30 68
28 70 -2 3 -19 -25 -37 -61z"/>
<path d="M3237 1349 c-20 -30 -97 -208 -97 -223 0 -5 7 -1 16 10 15 19 16 19
8 -1 -4 -11 -9 -33 -11 -50 -3 -23 0 -19 13 15 9 25 20 50 26 55 5 6 5 -2 -1
-18 -6 -16 -11 -36 -11 -45 0 -15 2 -15 11 -2 8 12 9 10 4 -7 -4 -14 -2 -23 4
-23 6 0 11 8 11 19 0 21 23 45 33 34 12 -12 7 -22 -8 -17 -11 5 -15 -1 -15
-17 0 -19 2 -21 10 -9 6 10 10 11 10 3 0 -7 9 -13 20 -13 11 0 20 -6 21 -12 0
-7 4 -4 9 7 5 11 9 14 9 7 1 -7 6 -10 13 -6 8 5 9 2 5 -9 -5 -13 -1 -17 16
-16 12 0 16 3 9 6 -16 6 -6 23 14 23 8 0 12 -4 9 -10 -10 -16 21 -12 35 5 7 8
19 15 28 15 13 0 13 -2 -1 -17 -13 -15 -13 -20 -1 -30 16 -16 34 -17 34 -2 0
5 -4 8 -9 4 -15 -8 -25 15 -12 28 6 6 11 21 11 33 0 12 6 24 13 27 6 2 9 8 5
12 -4 4 -14 3 -21 -3 -16 -14 -28 -6 -20 14 3 8 10 11 17 7 6 -4 3 5 -7 21
-10 15 -16 30 -13 34 3 3 6 0 6 -6 0 -7 4 -12 9 -12 5 0 4 15 -2 33 -14 38
-82 112 -95 103 -5 -3 -17 3 -27 14 -15 16 -21 18 -33 7 -13 -10 -15 -9 -9 6
4 10 3 16 -2 12 -5 -3 -11 0 -13 7 -3 8 -11 2 -21 -13z m23 -49 c-6 -11 -13
-20 -16 -20 -2 0 0 9 6 20 6 11 13 20 16 20 2 0 0 -9 -6 -20z m30 -26 c0 -8
-19 -13 -24 -6 -3 5 1 9 9 9 8 0 15 -2 15 -3z m100 -8 c0 -2 -8 -10 -17 -17
-16 -13 -17 -12 -4 4 13 16 21 21 21 13z m-159 -33 c-8 -15 -10 -15 -11 -2 0
17 10 32 18 25 2 -3 -1 -13 -7 -23z m-37 -32 c-9 -23 -18 -40 -21 -38 -2 3 4
23 13 46 9 23 18 40 21 38 2 -3 -4 -23 -13 -46z m17 -18 c-12 -20 -14 -14 -5
12 4 9 9 14 11 11 3 -2 0 -13 -6 -23z m0 -66 c-10 -9 -11 -8 -5 6 3 10 9 15
12 12 3 -3 0 -11 -7 -18z m223 -28 c-6 -11 -24 -2 -24 11 0 5 7 7 15 4 8 -4
12 -10 9 -15z"/>
<path d="M3080 1328 c-11 -18 -20 -40 -20 -48 1 -8 7 0 16 19 8 19 19 41 26
48 6 7 8 13 4 13 -3 0 -15 -15 -26 -32z"/>
<path d="M5485 1337 c-11 -6 -40 -12 -65 -13 -25 -1 -53 -5 -64 -9 -11 -5 -21
-3 -26 5 -4 7 -9 8 -11 2 -2 -6 -34 -13 -71 -16 -61 -5 -67 -4 -61 12 6 16 6
16 -11 0 -19 -19 -21 -20 -79 -23 -26 -1 -41 3 -47 14 -6 10 -10 11 -10 4 0
-10 -19 -12 -74 -8 -41 2 -78 5 -83 7 -11 2 -123 -22 -142 -32 -9 -4 -31 -15
-48 -24 -18 -9 -52 -21 -75 -26 l-43 -9 45 3 c25 1 74 14 110 28 80 31 120 41
120 29 0 -9 -56 -35 -64 -30 -2 2 -15 -6 -28 -19 -14 -12 -28 -19 -32 -15 -4
4 -4 0 -1 -8 4 -12 -6 -18 -45 -27 -98 -23 -154 -11 -213 43 -15 14 -27 21
-27 15 0 -6 -11 -22 -25 -36 -20 -20 -28 -23 -43 -13 -16 10 -24 8 -45 -7 -14
-10 -31 -31 -38 -46 -6 -16 -15 -28 -20 -28 -11 0 -1 28 23 62 26 37 23 44
-25 63 -31 12 -50 13 -68 7 -35 -14 -46 -29 -76 -113 -24 -66 -27 -88 -28
-206 0 -73 3 -133 8 -133 4 0 7 9 7 19 0 10 6 21 13 24 11 4 31 37 74 120 17
32 27 36 18 7 -5 -14 -2 -20 9 -20 9 0 16 5 16 10 0 6 7 10 16 10 10 0 14 6
11 15 -4 8 -2 17 4 20 5 4 12 -1 15 -9 6 -17 -17 -46 -36 -46 -7 0 -10 -7 -7
-15 4 -8 0 -26 -7 -40 -9 -17 -16 -22 -19 -13 -2 7 -8 1 -12 -15 -5 -17 -16
-29 -32 -33 -15 -4 -22 -12 -19 -20 3 -7 -5 -20 -16 -28 -12 -9 -19 -19 -15
-22 4 -4 1 -12 -7 -18 -8 -6 -26 -42 -41 -81 -14 -38 -33 -84 -41 -102 -8 -17
-14 -36 -14 -41 0 -13 -28 -42 -41 -42 -5 0 -9 6 -8 13 0 11 9 30 71 144 28
52 34 109 12 117 -7 3 -17 -1 -23 -8 -19 -23 -41 -86 -40 -114 1 -15 -12 -58
-30 -96 -29 -63 -33 -67 -50 -55 -96 72 -139 107 -135 111 2 3 -2 11 -11 18
-13 11 -14 10 -9 -5 6 -15 5 -16 -17 -4 -14 7 -19 14 -11 17 21 7 14 19 -19
33 -17 7 -60 40 -94 73 -35 34 -81 77 -103 96 -24 21 -36 38 -29 42 6 3 11 17
12 30 2 12 6 55 10 94 6 52 4 73 -4 79 -16 9 -22 3 -24 -26 -1 -13 -8 -29 -16
-35 -13 -10 -13 -14 -2 -28 10 -12 11 -16 1 -16 -9 0 -11 -9 -7 -30 6 -28 6
-29 -13 -13 -13 11 -16 21 -10 28 14 17 0 26 -16 11 -13 -14 -8 -60 6 -51 5 3
11 1 15 -5 4 -6 -4 -9 -19 -8 -20 2 -26 8 -27 28 -1 18 -3 20 -6 7 -3 -11 -11
-16 -19 -13 -8 3 -14 0 -14 -6 0 -7 -5 -6 -15 2 -8 7 -15 20 -15 28 0 12 -3
13 -12 4 -15 -15 -28 -15 -28 -1 0 5 5 7 10 4 6 -3 10 -1 10 6 0 6 -8 9 -20 6
-10 -3 -21 0 -24 7 -2 6 -5 3 -5 -7 -1 -16 -3 -17 -16 -3 -8 8 -15 23 -16 33
0 13 -3 12 -10 -7 -10 -23 -11 -24 -23 -7 -8 9 -20 15 -28 12 -9 -4 -22 1 -31
9 -8 8 -17 12 -21 9 -6 -6 -9 9 -7 37 0 8 -4 5 -11 -7 -12 -25 -34 -32 -25 -9
4 10 1 13 -9 9 -8 -3 -23 2 -33 11 -10 9 -20 13 -23 10 -4 -3 -30 6 -60 19
-29 13 -64 28 -78 32 -14 4 -37 16 -52 26 -29 21 -48 24 -48 9 0 -5 4 -10 9
-10 5 0 13 -10 17 -22 7 -22 7 -22 15 -3 7 18 8 18 8 1 1 -12 6 -16 16 -12 11
4 15 -2 16 -22 0 -24 1 -25 9 -7 5 11 9 14 9 6 1 -7 7 -11 16 -7 9 3 15 0 15
-9 0 -9 6 -12 15 -9 9 4 15 0 15 -7 0 -11 3 -11 10 1 8 12 10 8 11 -15 1 -29
1 -29 8 -5 l7 25 8 -24 c6 -18 10 -21 17 -10 7 12 9 12 9 0 0 -7 6 -11 15 -7
8 3 15 1 15 -4 0 -6 7 -10 15 -10 8 0 15 -6 15 -12 0 -9 4 -8 10 2 8 13 10 12
10 -3 0 -10 5 -15 10 -12 6 3 10 -4 11 -17 0 -22 1 -22 9 -3 8 18 9 18 9 -5 1
-20 3 -22 11 -10 7 11 10 3 11 -30 1 -30 3 -36 6 -17 5 31 22 27 24 -6 1 -20
2 -20 8 3 8 28 5 30 58 -38 11 -13 32 -25 52 -27 19 -3 39 -10 45 -16 8 -9 7
-10 -6 -6 -9 3 -19 1 -22 -6 -3 -9 -7 -8 -14 2 -5 7 -12 9 -15 4 -4 -6 -28
-11 -54 -12 -75 -3 -77 -3 -91 -20 -8 -9 -11 -10 -7 -3 9 17 -6 15 -35 -5 -13
-9 -31 -18 -40 -19 -8 -2 -24 -4 -35 -6 -11 -2 -23 -7 -27 -12 -9 -13 -35 -18
-91 -17 -27 1 -46 -3 -43 -8 3 -4 -6 -7 -21 -5 -14 1 -36 -2 -49 -6 -15 -6
-51 -5 -98 3 -75 13 -113 8 -128 -16 -13 -20 -9 -24 17 -24 13 0 22 3 20 8 -3
4 30 5 72 2 43 -4 111 -7 151 -7 41 0 72 -5 72 -11 0 -5 4 -4 9 4 7 12 13 12
24 3 7 -7 17 -9 20 -5 4 3 7 -3 7 -15 0 -12 5 -22 10 -22 6 0 9 3 9 8 -4 26 2
30 33 21 18 -5 48 -9 65 -9 18 0 33 -5 33 -11 0 -7 -12 -9 -34 -5 -22 4 -37 2
-42 -5 -5 -8 -2 -10 9 -6 22 8 30 -20 9 -32 -16 -10 -16 -10 1 -11 9 0 17 4
17 9 0 17 45 21 60 4 13 -14 13 -15 -3 -10 -14 5 -16 2 -13 -17 3 -16 -1 -27
-11 -30 -21 -8 -25 -7 -18 4 3 5 1 10 -4 10 -6 0 -11 -9 -11 -20 0 -14 -5 -18
-17 -14 -15 5 -16 4 -3 -5 19 -13 43 -14 35 -1 -3 6 1 7 10 4 12 -5 13 -10 5
-20 -7 -7 -18 -10 -26 -7 -8 3 -14 1 -14 -5 0 -6 6 -13 13 -15 9 -4 9 -6 -1
-6 -6 -1 -21 8 -31 18 -17 17 -22 18 -38 6 -16 -13 -17 -14 -1 -15 22 0 12
-30 -11 -31 -11 0 -12 -2 -3 -6 7 -3 22 3 33 13 10 9 22 14 27 9 4 -4 1 -10
-5 -12 -25 -9 -13 -25 13 -19 22 6 25 4 20 -9 -3 -9 -6 -21 -6 -26 0 -5 -4 -9
-10 -9 -5 0 -7 7 -4 15 4 10 0 15 -11 15 -12 0 -15 -5 -11 -16 3 -9 6 -18 6
-20 0 -2 8 -4 18 -5 15 0 15 -1 -2 -8 -17 -6 -15 -9 12 -20 18 -8 32 -17 32
-21 0 -4 14 -10 31 -14 27 -5 30 -9 25 -31 -4 -14 -2 -25 4 -25 5 0 10 -5 10
-12 0 -9 -3 -9 -12 0 -17 17 -39 15 -32 -3 9 -21 -9 -19 -25 4 -11 15 -20 17
-36 11 -15 -6 -29 -4 -43 6 -14 10 -23 11 -27 3 -4 -5 -4 -13 -1 -16 3 -4 6
-1 6 6 0 7 5 9 10 6 6 -3 10 -14 10 -23 0 -11 -3 -13 -8 -6 -4 6 -17 10 -29 9
-26 -2 -34 3 -50 30 -6 11 -17 19 -24 17 -14 -4 -32 -4 -59 0 -9 1 -28 -2 -43
-6 -19 -4 -26 -3 -25 6 4 16 -43 23 -52 8 -4 -7 -21 -13 -38 -14 -17 -1 -37
-7 -44 -15 -11 -11 -10 -12 7 -4 23 10 45 10 61 0 7 -4 14 1 17 13 3 11 13 20
23 20 16 0 16 -1 -2 -15 -11 -9 -14 -15 -6 -16 36 -4 59 -2 70 5 8 5 10 2 5
-11 -3 -10 -3 -15 2 -11 4 4 20 1 35 -7 15 -8 30 -12 32 -9 3 2 11 -2 18 -11
7 -8 18 -15 25 -15 7 0 18 -7 25 -15 7 -8 16 -12 21 -9 5 3 9 0 9 -5 0 -6 7
-11 15 -11 8 0 15 -7 15 -16 0 -9 5 -12 12 -8 7 5 8 3 4 -5 -5 -7 -14 -10 -22
-7 -7 3 -16 1 -19 -4 -4 -6 1 -10 10 -10 10 0 13 -5 9 -12 -4 -7 -3 -8 5 -4 6
4 18 2 26 -4 8 -7 15 -10 15 -7 0 4 16 -5 36 -18 33 -23 47 -25 140 -25 l103
0 8 47 c10 59 11 239 1 310 -6 49 -5 54 27 95 58 73 83 193 55 269 -7 20 -11
43 -7 51 7 20 58 30 76 15 23 -20 131 -155 131 -165 0 -6 14 -22 31 -36 17
-14 50 -50 73 -79 45 -54 95 -83 189 -109 27 -7 52 -17 57 -23 5 -6 0 -36 -11
-70 -12 -33 -22 -64 -23 -70 -15 -55 -21 -72 -33 -83 -7 -7 -13 -26 -13 -42 0
-16 -3 -37 -6 -47 -4 -10 7 2 23 27 30 46 52 73 111 138 18 20 47 66 64 102
16 36 50 105 75 154 30 61 39 87 28 82 -9 -3 -13 -2 -10 4 3 6 12 10 18 10 7
0 23 20 36 45 13 25 34 57 47 72 12 14 28 37 35 50 30 57 256 297 349 372 25
20 53 44 64 53 36 32 168 82 220 82 27 1 51 -4 53 -9 4 -14 -86 -67 -99 -59
-7 4 -8 2 -4 -4 4 -7 1 -12 -8 -12 -9 0 -16 -4 -16 -10 0 -5 -8 -10 -19 -10
-10 0 -30 -11 -45 -25 -14 -13 -26 -22 -26 -19 0 3 -11 -7 -25 -21 -14 -14
-29 -25 -33 -25 -5 0 -63 -54 -130 -120 -66 -66 -127 -120 -134 -120 -9 0 -9
-3 2 -10 12 -8 12 -10 -3 -16 -9 -3 -17 -12 -17 -18 0 -7 -14 -22 -30 -35 -17
-12 -28 -26 -25 -32 4 -5 -1 -9 -9 -9 -9 0 -16 -7 -16 -15 0 -8 -4 -15 -10
-15 -5 0 -10 -4 -10 -9 0 -6 -10 -21 -23 -35 -12 -13 -29 -37 -37 -53 -8 -15
-21 -34 -28 -41 -7 -8 -10 -18 -7 -23 4 -5 1 -9 -5 -9 -7 0 -10 -6 -7 -13 3
-7 -4 -19 -15 -26 -14 -9 -19 -20 -15 -37 2 -13 0 -24 -5 -24 -5 0 -21 -26
-35 -57 -22 -50 -105 -276 -120 -325 -5 -17 7 -18 146 -18 95 0 151 4 151 10
0 13 156 171 195 197 17 11 63 34 103 51 39 17 83 42 96 55 13 13 55 41 93 62
62 35 110 72 102 79 -2 2 -15 9 -29 16 l-24 13 41 36 c54 48 167 107 223 116
25 4 101 29 170 55 214 82 311 105 423 101 49 -1 67 1 67 11 0 9 3 9 10 -2 8
-13 10 -12 10 3 0 9 -6 17 -14 17 -7 0 -19 6 -25 14 -15 18 19 32 124 50 44 8
93 19 108 25 42 16 95 14 105 -5 6 -11 11 -13 16 -5 10 16 100 14 193 -4 43
-8 79 -15 81 -15 1 0 2 60 2 134 l0 134 -47 20 c-48 19 -83 31 -218 70 -120
35 -161 42 -282 45 -50 1 -95 5 -99 10 -11 11 -26 9 -19 -3 3 -5 -3 -10 -14
-10 -12 0 -21 5 -21 10 0 6 -9 10 -20 10 -11 0 -20 -4 -20 -9 0 -4 -26 -7 -57
-6 -73 3 -73 3 -73 14 0 7 271 8 456 1 12 0 62 -9 110 -21 49 -11 100 -22 114
-25 14 -3 62 -18 108 -33 45 -16 81 -24 79 -18 -5 16 -178 70 -287 91 -72 13
-126 28 -139 39 -12 10 -13 9 -6 -2 6 -11 4 -13 -11 -7 -10 5 -54 9 -96 10
-45 0 -78 5 -78 11 0 7 -3 7 -8 0 -10 -14 -42 -15 -42 -1 0 6 -4 5 -9 -3 -8
-12 -15 -13 -35 -3 -16 7 -28 8 -31 2 -4 -7 -13 -6 -25 0 -13 7 -21 7 -25 0
-8 -14 -42 -13 -47 1 -3 8 -9 7 -19 -3 -15 -15 -43 -13 -33 3 7 12 3 11 -21
-4z m35 -46 c0 -5 -18 -9 -40 -8 -22 2 -40 -1 -40 -5 0 -5 -11 -6 -25 -4 -14
3 -25 2 -25 -2 0 -4 -57 -8 -127 -10 -127 -2 -166 10 -50 16 34 1 96 6 137 10
129 13 170 13 170 3z m-560 -10 c0 -4 -11 -6 -25 -3 -14 2 -25 6 -25 8 0 2 11
4 25 4 14 0 25 -4 25 -9z m90 -14 c0 -8 -6 -14 -13 -14 -8 0 -14 6 -14 14 0 7
6 13 14 13 7 0 13 -6 13 -13z m-1795 -517 c-3 -5 -14 -10 -23 -10 -15 0 -15 2
-2 10 20 13 33 13 25 0z m-48 -6 c-3 -3 -12 -4 -19 -1 -8 3 -5 6 6 6 11 1 17
-2 13 -5z m-87 -144 c0 -5 -4 -10 -10 -10 -5 0 -10 5 -10 10 0 6 5 10 10 10 6
0 10 -4 10 -10z m5 -190 c3 -6 -1 -7 -9 -4 -18 7 -21 14 -7 14 6 0 13 -4 16
-10z m-50 -220 c3 -5 2 -10 -4 -10 -5 0 -13 5 -16 10 -3 6 -2 10 4 10 5 0 13
-4 16 -10z m75 -13 c0 -2 -10 -12 -21 -23 -22 -19 -22 -19 -8 4 12 19 29 30
29 19z m-113 -102 c0 -8 -4 -12 -9 -9 -5 3 -6 10 -3 15 9 13 12 11 12 -6z"/>
<path d="M3088 1275 c-8 -19 -12 -35 -8 -35 8 0 33 61 27 66 -2 2 -10 -12 -19
-31z"/>
<path d="M4444 1291 c4 -5 14 -7 22 -4 14 5 15 3 5 -15 -10 -18 -9 -21 4 -16
23 9 14 38 -14 42 -14 2 -21 0 -17 -7z"/>
<path d="M4500 1262 c0 -6 9 -12 20 -15 11 -3 20 -3 20 -1 0 2 -9 8 -20 14
-11 6 -20 7 -20 2z"/>
<path d="M3032 1225 c-7 -14 -12 -31 -12 -38 1 -7 7 3 16 22 17 39 13 54 -4
16z"/>
<path d="M3075 1173 c-29 -69 -29 -74 0 -20 14 27 25 53 23 58 -2 5 -12 -12
-23 -38z"/>
<path d="M3038 1165 c-21 -56 -15 -58 12 -5 22 43 24 50 12 50 -4 0 -15 -20
-24 -45z"/>
<path d="M3112 1189 c-16 -25 -33 -69 -27 -69 7 0 47 81 43 86 -2 1 -9 -6 -16
-17z"/>
<path d="M3131 1094 c0 -11 3 -14 6 -6 3 7 2 16 -1 19 -3 4 -6 -2 -5 -13z"/>
<path d="M3102 1075 c0 -16 2 -22 5 -12 2 9 2 23 0 30 -3 6 -5 -1 -5 -18z"/>
<path d="M3037 1073 c-4 -3 -7 -11 -7 -17 0 -6 5 -5 12 2 6 6 9 14 7 17 -3 3
-9 2 -12 -2z"/>
<path d="M3172 1045 c0 -16 2 -22 5 -12 2 9 2 23 0 30 -3 6 -5 -1 -5 -18z"/>
<path d="M3146 1034 c-4 -9 -4 -19 -1 -22 2 -3 7 3 11 12 4 9 4 19 1 22 -2 3
-7 -3 -11 -12z"/>
<path d="M3116 1031 c-4 -7 -5 -15 -2 -18 9 -9 19 4 14 18 -4 11 -6 11 -12 0z"/>
<path d="M3374 1023 c-17 -12 -17 -13 3 -13 13 0 24 -8 28 -20 7 -21 20 -26
30 -11 3 5 -5 20 -19 34 -20 20 -26 22 -42 10z"/>
<path d="M3275 1020 c-3 -5 -1 -10 4 -10 6 0 11 5 11 10 0 6 -2 10 -4 10 -3 0
-8 -4 -11 -10z"/>
<path d="M3187 1008 c-2 -7 -1 -22 3 -33 6 -16 8 -13 7 13 0 35 -2 39 -10 20z"/>
<path d="M3310 1010 c0 -5 5 -10 10 -10 6 0 10 5 10 10 0 6 -4 10 -10 10 -5 0
-10 -4 -10 -10z"/>
<path d="M3332 960 c0 -14 2 -19 5 -12 2 6 2 18 0 25 -3 6 -5 1 -5 -13z"/>
<path d="M3350 940 c0 -5 5 -10 10 -10 6 0 10 5 10 10 0 6 -4 10 -10 10 -5 0
-10 -4 -10 -10z"/>
<path d="M3061 894 c0 -11 3 -14 6 -6 3 7 2 16 -1 19 -3 4 -6 -2 -5 -13z"/>
<path d="M3046 813 c-6 -14 -5 -15 5 -6 7 7 10 15 7 18 -3 3 -9 -2 -12 -12z"/>
<path d="M3170 815 c0 -8 4 -15 10 -15 5 0 7 7 4 15 -4 8 -8 15 -10 15 -2 0
-4 -7 -4 -15z"/>
<path d="M3070 810 c0 -5 5 -10 11 -10 5 0 7 5 4 10 -3 6 -8 10 -11 10 -2 0
-4 -4 -4 -10z"/>
<path d="M2953 765 c0 -8 7 -15 14 -15 8 0 11 -4 8 -10 -9 -15 4 -12 21 5 14
13 13 15 -3 15 -11 0 -24 5 -29 10 -7 7 -11 6 -11 -5z"/>
<path d="M2445 734 c-38 -13 -71 -24 -72 -24 -1 0 -14 -25 -28 -55 -33 -73
-48 -137 -33 -146 6 -4 8 -14 5 -23 -4 -9 -3 -16 1 -16 8 0 72 101 72 114 0
27 97 124 139 137 31 10 112 7 171 -6 15 -4 33 0 45 8 17 13 10 15 -80 21 -55
4 -111 8 -125 10 -14 2 -56 -7 -95 -20z"/>
<path d="M2995 560 c3 -5 8 -10 11 -10 2 0 4 5 4 10 0 6 -5 10 -11 10 -5 0 -7
-4 -4 -10z"/>
<path d="M3060 530 c0 -5 5 -10 10 -10 6 0 10 5 10 10 0 6 -4 10 -10 10 -5 0
-10 -4 -10 -10z"/>
<path d="M2960 479 c0 -5 5 -7 10 -4 6 3 10 8 10 11 0 2 -4 4 -10 4 -5 0 -10
-5 -10 -11z"/>
<path d="M2500 454 c0 -8 -4 -12 -10 -9 -5 3 -10 0 -10 -7 0 -9 -3 -9 -10 2
-8 13 -10 12 -10 -3 0 -15 5 -17 23 -11 12 4 28 7 35 7 17 0 15 24 -3 31 -9 3
-15 0 -15 -10z"/>
<path d="M2591 461 c-8 -5 -21 -7 -29 -3 -9 3 -13 0 -11 -7 3 -7 8 -12 12 -12
4 1 13 1 21 1 8 0 16 7 20 15 6 17 6 18 -13 6z"/>
<path d="M2950 449 c0 -5 5 -7 10 -4 6 3 10 8 10 11 0 2 -4 4 -10 4 -5 0 -10
-5 -10 -11z"/>
<path d="M2411 434 c-25 -13 -25 -13 7 -12 18 1 32 5 32 9 0 15 -15 16 -39 3z"/>
<path d="M2930 415 c-11 -13 -10 -14 4 -9 9 3 16 10 16 15 0 13 -6 11 -20 -6z"/>
<path d="M2390 390 c-13 -8 -12 -10 3 -10 9 0 17 5 17 10 0 12 -1 12 -20 0z"/>
<path d="M2846 248 c3 -4 11 -5 19 -1 21 7 19 12 -4 10 -11 0 -18 -5 -15 -9z"/>
<path d="M2590 240 c-23 -7 -23 -8 -3 -9 12 -1 25 4 28 9 3 6 5 10 3 9 -2 -1
-14 -5 -28 -9z"/>
<path d="M2545 230 c-3 -5 -1 -10 4 -10 6 0 11 5 11 10 0 6 -2 10 -4 10 -3 0
-8 -4 -11 -10z"/>
<path d="M3994 175 c-3 -8 -4 -20 -2 -27 3 -7 7 -1 10 15 6 29 1 36 -8 12z"/>
<path d="M5699 163 c-13 -16 -12 -17 4 -4 16 13 21 21 13 21 -2 0 -10 -8 -17
-17z"/>
<path d="M3959 100 c-1 -5 -2 -14 -3 -19 0 -5 -10 -20 -22 -33 -35 -40 -37
-48 -14 -48 20 0 40 33 43 73 1 9 5 17 9 17 4 0 8 5 8 10 0 6 -4 10 -10 10 -5
0 -11 -4 -11 -10z"/>
<path d="M5458 83 c7 -3 16 -2 19 1 4 3 -2 6 -13 5 -11 0 -14 -3 -6 -6z"/>
<path d="M5325 50 c3 -5 8 -10 11 -10 2 0 4 5 4 10 0 6 -5 10 -11 10 -5 0 -7
-4 -4 -10z"/>
<path d="M5585 50 c-10 -16 4 -30 30 -30 13 0 27 -4 30 -10 3 -5 17 -10 31
-10 15 0 23 4 19 10 -4 6 -10 8 -15 5 -4 -3 -10 1 -13 8 -3 9 -16 12 -38 9
-27 -4 -31 -2 -26 12 7 17 -8 22 -18 6z"/>
<path d="M5354 38 c3 -15 26 -23 26 -8 0 6 -4 9 -9 6 -5 -4 -12 -1 -14 4 -3 6
-4 5 -3 -2z"/>
<path d="M5446 33 c-6 -14 -5 -15 5 -6 7 7 10 15 7 18 -3 3 -9 -2 -12 -12z"/>
<path d="M5491 26 c-7 -8 -8 -17 -3 -20 6 -3 12 3 15 14 6 24 4 25 -12 6z"/>
<path d="M4709 26 c-2 -2 -25 -6 -52 -8 -103 -10 -53 -19 106 -18 149 2 167 3
155 17 -7 9 -14 11 -16 5 -2 -6 -9 -9 -15 -7 -30 10 -111 13 -133 5 -15 -6
-24 -6 -24 0 0 10 -13 14 -21 6z"/>
<path d="M4936 16 c3 -8 15 -14 25 -13 19 1 19 2 3 14 -23 17 -35 16 -28 -1z"/>
<path d="M5517 23 c-4 -3 -7 -11 -7 -17 0 -6 5 -5 12 2 6 6 9 14 7 17 -3 3 -9
2 -12 -2z"/>
<path d="M4385 10 c-3 -6 1 -7 9 -4 18 7 21 14 7 14 -6 0 -13 -4 -16 -10z"/>
<path d="M4535 10 c3 -5 8 -10 11 -10 2 0 4 5 4 10 0 6 -5 10 -11 10 -5 0 -7
-4 -4 -10z"/>
<path d="M5588 3 c7 -3 16 -2 19 1 4 3 -2 6 -13 5 -11 0 -14 -3 -6 -6z"/>
</g>
</svg>
